<svg fill="none" height="32" viewBox="0 0 32 32" width="32" xmlns="http://www.w3.org/2000/svg" xmlns:xlink="http://www.w3.org/1999/xlink"><filter id="a" color-interpolation-filters="sRGB" filterUnits="userSpaceOnUse" height="37.2513" width="37.2513" x="-2.62564" y="-1.64103"><feFlood flood-opacity="0" result="BackgroundImageFix"/><feColorMatrix in="SourceAlpha" result="hardAlpha" type="matrix" values="0 0 0 0 0 0 0 0 0 0 0 0 0 0 0 0 0 0 127 0"/><feOffset dy=".984615"/><feGaussianBlur stdDeviation="1.31282"/><feColorMatrix type="matrix" values="0 0 0 0 0 0 0 0 0 0 0 0 0 0 0 0 0 0 0.1 0"/><feBlend in2="BackgroundImageFix" mode="normal" result="effect1_dropShadow_502_22"/><feBlend in="SourceGraphic" in2="effect1_dropShadow_502_22" mode="normal" result="shape"/></filter><filter id="b" color-interpolation-filters="sRGB" filterUnits="userSpaceOnUse" height="19.1111" width="20.768" x="5.65213" y="7.14221"><feFlood flood-opacity="0" result="BackgroundImageFix"/><feColorMatrix in="SourceAlpha" result="hardAlpha" type="matrix" values="0 0 0 0 0 0 0 0 0 0 0 0 0 0 0 0 0 0 127 0"/><feOffset dy=".888889"/><feGaussianBlur stdDeviation=".444444"/><feComposite in2="hardAlpha" operator="out"/><feColorMatrix type="matrix" values="0 0 0 0 0 0 0 0 0 0 0 0 0 0 0 0 0 0 0.5 0"/><feBlend in2="BackgroundImageFix" mode="normal" result="effect1_dropShadow_502_22"/><feBlend in="SourceGraphic" in2="effect1_dropShadow_502_22" mode="normal" result="shape"/></filter><radialGradient id="c" cx="0" cy="0" gradientTransform="matrix(0 -21.7767 23.2904 0 16.0361 26.6967)" gradientUnits="userSpaceOnUse" r="1"><stop offset="0" stop-color="#fa8200" stop-opacity=".4"/><stop offset=".5" stop-color="#fa8200" stop-opacity=".15"/><stop offset="1" stop-color="#fa8200" stop-opacity="0"/></radialGradient><linearGradient id="d" gradientUnits="userSpaceOnUse" x1="16.0361" x2="16.0361" y1="4.91998" y2="26.6967"><stop offset="0" stop-color="#331a00"/><stop offset=".495192" stop-color="#4a2600"/><stop offset="1" stop-color="#7e4100"/></linearGradient><linearGradient id="e" gradientUnits="userSpaceOnUse" x1="16.0362" x2="16.0362" y1="7.14221" y2="24.4755"><stop offset="0" stop-color="#fff" stop-opacity="0"/><stop offset="1" stop-color="#fff"/></linearGradient><clipPath id="f"><path d="m0 0h32v32h-32z"/></clipPath><g clip-path="url(#f)"><g filter="url(#a)"><path d="m0 2.29744c0-1.26884 1.0286-2.29744 2.29744-2.29744h27.40516c1.2688 0 2.2974 1.0286 2.2974 2.29744v27.40516c0 1.2688-1.0286 2.2974-2.2974 2.2974h-27.40516c-1.26884 0-2.29744-1.0286-2.29744-2.2974z" fill="#fff"/><path d="m0 2.29744c0-1.26884 1.0286-2.29744 2.29744-2.29744h27.40516c1.2688 0 2.2974 1.0286 2.2974 2.29744v27.40516c0 1.2688-1.0286 2.2974-2.2974 2.2974h-27.40516c-1.26884 0-2.29744-1.0286-2.29744-2.2974z" fill="#222"/><path d="m2.29785.0410156h27.40425c1.2462 0 2.2569 1.0106544 2.2569 2.2568344v27.40425c0 1.2462-1.0107 2.2569-2.2569 2.2569h-27.40425c-1.24618 0-2.2568344-1.0107-2.2568344-2.2569v-27.40425c0-1.24618 1.0106544-2.2568344 2.2568344-2.2568344z" stroke="#000" stroke-opacity=".1" stroke-width=".082051"/><path d="m13.3564 5.79889c2.8116-1.46226 6.2781-.39935 7.7793 2.37988l.0039.00586 5.6221 9.62597c.0262.0448.0503.092.0742.1416l.0049.0098c.4536.8402.6904 1.7773.6904 2.7324 0 3.198-2.6104 5.7705-5.7968 5.7705h-11.0596v-.001l-.0127.001c-1.12689.0649-2.24502-.2052-3.2119-.7568l-.00586-.003c-2.7688-1.5886-3.73334-5.1247-2.125-7.8916l.00195-.0009 5.70021-9.79105c.553-.95332 1.3664-1.71932 2.3349-2.22266z" fill="#111"/><path d="m13.3564 5.79889c2.8116-1.46226 6.2781-.39935 7.7793 2.37988l.0039.00586 5.6221 9.62597c.0262.0448.0503.092.0742.1416l.0049.0098c.4536.8402.6904 1.7773.6904 2.7324 0 3.198-2.6104 5.7705-5.7968 5.7705h-11.0596v-.001l-.0127.001c-1.12689.0649-2.24502-.2052-3.2119-.7568l-.00586-.003c-2.7688-1.5886-3.73334-5.1247-2.125-7.8916l.00195-.0009 5.70021-9.79105c.553-.95332 1.3664-1.71932 2.3349-2.22266z" fill="url(#c)"/><path d="m13.3564 5.79889c2.8116-1.46226 6.2781-.39935 7.7793 2.37988l.0039.00586 5.6221 9.62597c.0262.0448.0503.092.0742.1416l.0049.0098c.4536.8402.6904 1.7773.6904 2.7324 0 3.198-2.6104 5.7705-5.7968 5.7705h-11.0596v-.001l-.0127.001c-1.12689.0649-2.24502-.2052-3.2119-.7568l-.00586-.003c-2.7688-1.5886-3.73334-5.1247-2.125-7.8916l.00195-.0009 5.70021-9.79105c.553-.95332 1.3664-1.71932 2.3349-2.22266z" stroke="url(#d)" stroke-linejoin="round" stroke-width=".444444"/><g clip-rule="evenodd" fill-rule="evenodd" filter="url(#b)"><path d="m9.39015 22.3353c-.90493-.5225-1.21477-1.675-.69345-2.5736l5.6952-9.79132c.5262-.89856 1.6869-1.20622 2.5967-.6788.9.52253 1.2099 1.66522.6935 2.56382l-5.7001 9.7913c-.5213.9035-1.682 1.2111-2.59185.6886zm-2.34102-3.5161c-1.04756 1.802-.42296 4.1119 1.39183 5.1521.65902.376 1.42133.5518 2.17874.4932h11.1149c2.0951 0 3.7968-1.6897 3.7968-3.77 0-.6593-.1721-1.3039-.5017-1.8753h.005l-5.6362-9.64971c-.9689-1.84595-3.2607-2.56381-5.1197-1.59689-.6394.33208-1.1706.83507-1.5296 1.45527zm12.28047-6.0408-.0098.0195-2.4 4.1265h4.8246zm-3.5066 6.031-2.1934 3.7652h8.105c1.0476 0 1.8984-.84 1.8984-1.885 0-1.0451-.8459-1.885-1.8984-1.885h-5.9116z" fill="#fa8200"/><path d="m9.39015 22.3353c-.90493-.5225-1.21477-1.675-.69345-2.5736l5.6952-9.79132c.5262-.89856 1.6869-1.20622 2.5967-.6788.9.52253 1.2099 1.66522.6935 2.56382l-5.7001 9.7913c-.5213.9035-1.682 1.2111-2.59185.6886zm-2.34102-3.5161c-1.04756 1.802-.42296 4.1119 1.39183 5.1521.65902.376 1.42133.5518 2.17874.4932h11.1149c2.0951 0 3.7968-1.6897 3.7968-3.77 0-.6593-.1721-1.3039-.5017-1.8753h.005l-5.6362-9.64971c-.9689-1.84595-3.2607-2.56381-5.1197-1.59689-.6394.33208-1.1706.83507-1.5296 1.45527zm12.28047-6.0408-.0098.0195-2.4 4.1265h4.8246zm-3.5066 6.031-2.1934 3.7652h8.105c1.0476 0 1.8984-.84 1.8984-1.885 0-1.0451-.8459-1.885-1.8984-1.885h-5.9116z" fill="url(#e)" fill-opacity=".2"/></g></g></g></svg>