<svg width="180" height="180" viewBox="0 0 180 180" fill="none" xmlns="http://www.w3.org/2000/svg">
<path d="M0 41.1328C0 18.4158 18.4158 0 41.1328 0H138.867C161.584 0 180 18.4158 180 41.1328V138.867C180 161.584 161.584 180 138.867 180H41.1328C18.4158 180 0 161.584 0 138.867V41.1328Z" fill="#1E1E1E"/>
<path d="M47.8125 132.188C47.8125 120.538 57.2565 111.094 68.9062 111.094H90V132.188C90 143.837 80.556 153.281 68.9062 153.281V153.281C57.2565 153.281 47.8125 143.837 47.8125 132.188V132.188Z" fill="#24CB71"/>
<path d="M90 26.7188V68.9062H111.094C122.744 68.9062 132.188 59.4623 132.188 47.8125V47.8125C132.188 36.1627 122.744 26.7188 111.094 26.7188H90Z" fill="#FF7237"/>
<circle cx="110.918" cy="90" r="21.0938" fill="#00B6FF"/>
<path d="M47.8125 47.8125C47.8125 59.4623 57.2565 68.9062 68.9063 68.9062H90V26.7187L68.9063 26.7187C57.2565 26.7187 47.8125 36.1627 47.8125 47.8125V47.8125Z" fill="#FF3737"/>
<path d="M47.8125 90C47.8125 101.65 57.2565 111.094 68.9063 111.094H90V68.9062H68.9063C57.2565 68.9062 47.8125 78.3502 47.8125 90V90Z" fill="#874FFF"/>
</svg>
