<svg width="268" height="268" viewBox="0 0 268 268" fill="none" xmlns="http://www.w3.org/2000/svg">
<path d="M22.0925 11.5385L170.09 0.608048C188.269 -0.952166 192.94 0.099865 204.37 8.40912L251.613 41.6907C259.406 47.4145 262 48.9747 262 55.2066V237.734C262 249.173 257.845 255.939 243.304 256.974L71.4399 267.378C60.5273 267.895 55.3295 266.335 49.6147 259.051L14.8264 213.814C8.5855 205.487 6 199.255 6 191.971V29.7261C6 20.3737 10.1546 12.5727 22.0925 11.5385Z" fill="white"/>
<path d="M170.09 0.608048L22.0925 11.5385C10.1546 12.5727 6 20.3737 6 29.7261V191.971C6 199.255 8.5855 205.487 14.8264 213.814L49.6147 259.051C55.3295 266.335 60.5273 267.895 71.4399 267.378L243.304 256.974C257.836 255.939 262 249.173 262 237.734V55.2066C262 49.2957 259.664 47.5928 252.79 42.5466C252.395 42.2617 251.999 41.9764 251.605 41.6907L204.37 8.40912C192.94 0.099865 188.269 -0.952166 170.09 0.608048ZM75.327 52.2199C61.294 53.165 58.1112 53.379 50.1407 46.8974L29.8757 30.7781C27.8163 28.6919 28.8505 26.0886 34.0393 25.5715L176.313 15.176C188.26 14.1329 194.483 18.2964 199.155 21.934L223.556 39.6134C224.599 40.1394 227.194 43.2509 224.073 43.2509L77.1458 52.0951L75.327 52.2199ZM58.9671 236.174V81.2221C58.9671 74.4552 61.0444 71.3348 67.2674 70.8088L236.02 60.9304C241.744 60.4133 244.329 64.0508 244.329 70.8088V224.726C244.329 231.493 243.286 237.217 233.943 237.734L72.4562 247.095C63.1128 247.612 58.9671 244.501 58.9671 236.174ZM218.376 89.5314C219.411 94.212 218.376 98.8927 213.696 99.4276L205.913 100.97V215.374C199.155 219.011 192.932 221.089 187.734 221.089C179.425 221.089 177.347 218.485 171.124 210.693L120.226 130.614V208.09L136.327 211.736C136.327 211.736 136.327 221.098 123.337 221.098L87.5234 223.175C86.4803 221.089 87.5234 215.891 91.1521 214.857L100.504 212.262V109.823L87.5234 108.771C86.4803 104.09 89.0747 97.3324 96.3498 96.8064L134.776 94.2209L187.734 175.334V103.573L174.236 102.022C173.193 96.2893 177.347 92.1258 182.536 91.6176L218.376 89.5314Z" fill="black"/>
</svg>
