<svg width="80" height="80" viewBox="0 0 80 80" fill="none" xmlns="http://www.w3.org/2000/svg">
<path d="M0 20C0 8.9543 8.9543 0 20 0H60C71.0457 0 80 8.9543 80 20V60C80 71.0457 71.0457 80 60 80H20C8.9543 80 0 71.0457 0 60V20Z" fill="#FFDD33"/>
<path fill-rule="evenodd" clip-rule="evenodd" d="M53.187 15.2505H45.9247L51.9765 25.8835L38.6625 15.2505H31.4005L38.0575 28.2467L24.1382 15.2505H16.876L24.1382 31.7932L16.876 64.8755H24.1382L38.0575 29.43L31.4005 64.8755H38.6625L51.9765 27.0667L45.9247 64.8755H53.187L66.501 23.5203L53.187 15.2505Z" fill="#1C1C1E"/>
</svg>
