<svg width="16" height="16" viewBox="0 0 16 16" fill="none" xmlns="http://www.w3.org/2000/svg">
<path d="M8.29119 5.25982C8.6686 5.32916 8.98962 5.43318 9.25424 5.57187C9.5232 5.71055 9.75312 5.87741 9.94399 6.07245C10.4819 6.60553 10.8398 7.19496 11.0177 7.84072C11.1955 8.48649 11.1934 9.13226 11.0112 9.77803C10.8333 10.4195 10.4797 11.0067 9.9505 11.5398L7.68603 13.8022C7.15679 14.3309 6.56898 14.6841 5.92261 14.8618C5.28058 15.0439 4.63638 15.046 3.99001 14.8683C3.34364 14.6906 2.74932 14.3309 2.20706 13.7892C1.67348 13.2561 1.31559 12.6667 1.1334 12.0209C0.955535 11.3751 0.955535 10.7315 1.1334 10.0901C1.31559 9.44431 1.67131 8.85488 2.20056 8.3218L4.0746 6.46251C4.01387 6.71821 3.99868 6.98476 4.02905 7.26213C4.05942 7.53518 4.12666 7.78872 4.23077 8.02275L3.11806 9.13443C2.75366 9.49849 2.51073 9.90155 2.38926 10.3436C2.2678 10.7857 2.2678 11.2278 2.38926 11.6698C2.51073 12.1119 2.75583 12.5171 3.12456 12.8855C3.48896 13.2539 3.8924 13.4966 4.33488 13.6136C4.77736 13.735 5.21985 13.735 5.66233 13.6136C6.10481 13.4923 6.50825 13.2496 6.87265 12.8855L9.03951 10.7272C9.4039 10.3631 9.64467 9.96006 9.76179 9.51799C9.88326 9.07592 9.88326 8.63385 9.76179 8.19178C9.64033 7.74971 9.39523 7.34448 9.02649 6.97609C8.83128 6.77672 8.59269 6.61636 8.31071 6.49501C8.02874 6.37366 7.69254 6.29565 7.30212 6.26098L8.29119 5.25982ZM7.71206 10.7402C7.33465 10.6708 7.01147 10.5668 6.74251 10.4281C6.47788 10.2894 6.2523 10.1248 6.06577 9.93406C5.52351 9.39664 5.16345 8.80504 4.98559 8.15927C4.80773 7.51351 4.80773 6.8699 4.98559 6.22847C5.16779 5.5827 5.52568 4.99327 6.05926 4.46019L8.31071 2.20433C8.84429 1.67125 9.4321 1.31586 10.0741 1.13817C10.7205 0.956138 11.3669 0.953971 12.0132 1.13167C12.6596 1.30936 13.2539 1.66908 13.7962 2.21084C14.3298 2.74392 14.6855 3.33335 14.8634 3.97911C15.0456 4.62488 15.0456 5.27065 14.8634 5.91642C14.6855 6.56219 14.3319 7.14945 13.8027 7.6782L11.9352 9.53749C11.9916 9.28612 12.0046 9.02391 11.9742 8.75087C11.9438 8.47349 11.8766 8.21562 11.7725 7.97725L12.8852 6.86557C13.2496 6.50151 13.4925 6.10062 13.614 5.66288C13.7398 5.22081 13.7398 4.77874 13.614 4.33667C13.4925 3.89027 13.2496 3.48504 12.8852 3.12098C12.5121 2.74825 12.1043 2.50338 11.6619 2.38636C11.2237 2.26501 10.7834 2.26501 10.3409 2.38636C9.90278 2.50772 9.49717 2.75259 9.1241 3.12098L6.97025 5.27282C6.60152 5.63688 6.35642 6.03994 6.23495 6.48201C6.11349 6.92408 6.11349 7.36615 6.23495 7.80822C6.35642 8.25029 6.60369 8.65769 6.97676 9.03041C7.17631 9.22544 7.4149 9.38363 7.69254 9.50499C7.97451 9.62634 8.31071 9.70652 8.70114 9.74553L7.71206 10.7402Z" fill="#222222"/>
</svg>
