<svg width="16" height="16" fill="none" xmlns="http://www.w3.org/2000/svg"><g clip-path="url(#clip0_258_524)"><path d="M9.847 4.113h.883c.346 0 .638.038.875.115.242.071.466.196.673.374a5.6 5.6 0 0 1 .686.711l2.152 2.596c.127.148.224.294.292.438.067.144.114.307.14.489.025.182.037.402.037.66v3.745c0 .694-.182 1.223-.545 1.587-.364.364-.9.546-1.606.546H2.56c-.702 0-1.238-.182-1.606-.546-.364-.364-.546-.893-.546-1.587V9.496c0-.258.013-.478.038-.66.026-.182.072-.345.14-.489.068-.144.163-.29.286-.438l2.151-2.596c.254-.3.485-.537.692-.71.212-.179.436-.304.673-.375.237-.077.53-.115.876-.115h.882V5.27h-.914c-.203 0-.385.04-.545.12-.157.076-.3.197-.432.362L1.982 8.563c-.055.068-.072.138-.05.21.025.067.089.101.19.101h4.056c.17 0 .292.049.368.146a.48.48 0 0 1 .121.324v.019c0 .22.053.434.159.64.105.208.258.382.457.521.199.136.436.204.71.204.28 0 .519-.068.718-.204.199-.14.351-.313.457-.52.11-.207.165-.421.165-.641v-.02c0-.122.038-.23.114-.323.076-.097.2-.146.368-.146h4.063c.101 0 .163-.034.184-.102a.227.227 0 0 0-.044-.209l-2.28-2.812a1.265 1.265 0 0 0-.43-.362 1.179 1.179 0 0 0-.547-.12h-.914V4.113zM2.65 13.96h10.696c.275 0 .486-.072.634-.216.149-.144.223-.362.223-.654v-2.984h-3.714c-.076.364-.23.692-.463.984a2.465 2.465 0 0 1-.863.686 2.686 2.686 0 0 1-1.168.248c-.424 0-.809-.083-1.156-.248a2.527 2.527 0 0 1-.87-.686 2.32 2.32 0 0 1-.463-.984H1.792v2.984c0 .292.072.51.216.654.148.144.362.216.64.216z" fill="#222"/><path d="M7.994.476a.63.63 0 0 1 .463.19c.127.127.19.276.19.445v5.313l-.082.952.311-.406.787-.845a.531.531 0 0 1 .413-.184c.144 0 .27.051.38.153.11.097.166.222.166.374a.52.52 0 0 1-.172.387L8.476 8.76a.819.819 0 0 1-.241.165.66.66 0 0 1-.476 0 .819.819 0 0 1-.241-.165L5.543 6.855a.52.52 0 0 1-.17-.387c0-.152.052-.277.158-.374a.538.538 0 0 1 .387-.153c.165 0 .303.062.413.184l.787.845.31.406-.075-.952V1.11a.62.62 0 0 1 .184-.444.623.623 0 0 1 .457-.19z" fill="#00B5D9"/></g><defs><clipPath id="clip0_258_524"><path fill="#fff" d="M0 0H16V16H0z"/></clipPath></defs></svg>