<svg width="76" height="76" fill="none" xmlns="http://www.w3.org/2000/svg"><g clip-path="url(#clip0_232_86)"><path d="M33.213 66.424c0 5.288 4.788 9.575 4.788 9.575s4.787-4.287 4.787-9.575c0-5.288-4.787-9.574-4.787-9.574s-4.788 4.286-4.788 9.574zM63.17 54.176c-2.713 7.453-11.66 11.04-11.66 11.04s-4.549-8.498-1.836-15.952c2.713-7.454 11.66-11.04 11.66-11.04s4.549 8.498 1.836 15.952zm-36.842-4.912c2.713 7.453-1.836 15.952-1.836 15.952s-8.947-3.587-11.66-11.04c-2.713-7.454 1.835-15.952 1.835-15.952s8.948 3.586 11.661 11.04zm.9-27.721c0 11.898 10.772 21.542 10.772 21.542s10.773-9.644 10.773-21.542C48.773 9.644 38-.001 38-.001S27.23 9.644 27.23 21.543z" fill="#fff"/></g><defs><clipPath id="clip0_232_86"><path fill="#fff" d="M0 0H76V76H0z"/></clipPath></defs></svg>