<svg width="16" height="16" fill="none" xmlns="http://www.w3.org/2000/svg"><path d="M14.09 5.65c-.34 0-.65-.081-.928-.246a1.944 1.944 0 0 1-.672-.672 1.814 1.814 0 0 1-.247-.929c0-.336.082-.644.247-.924.168-.282.392-.506.672-.671.279-.168.589-.252.929-.252.336 0 .644.084.924.252.282.165.506.389.671.671.168.28.252.588.252.924 0 .337-.084.647-.252.93-.165.279-.389.503-.671.67-.28.166-.588.248-.924.248z" fill="#FF5454"/><path d="M3.171 12.402c-.59 0-1.042-.154-1.353-.462-.312-.307-.467-.755-.467-1.342v-5.94c0-.588.15-1.036.45-1.344.302-.307.719-.461 1.252-.461h8.583c-.071.179-.12.365-.145.558-.021.193-.02.383.006.57H3.193c-.233 0-.414.062-.543.187-.125.126-.188.307-.188.543v5.822c0 .244.063.428.188.553.13.126.31.188.543.188h9.609c.232 0 .412-.062.537-.188.129-.125.193-.308.193-.547V6.365a2.1 2.1 0 0 0 .269.049 2.575 2.575 0 0 0 .57 0c.092-.011.184-.027.273-.049v4.233c0 .587-.15 1.034-.451 1.342-.3.308-.718.462-1.252.462h-9.77zm8.556-7.455c.069.154.155.297.258.43.108.132.224.254.35.365L9.063 8.686a1.771 1.771 0 0 1-.52.343 1.41 1.41 0 0 1-.548.108 1.41 1.41 0 0 1-.548-.108 1.798 1.798 0 0 1-.516-.343l-5-4.496.709-.709 4.893 4.415c.15.132.304.199.462.199a.684.684 0 0 0 .462-.199l3.27-2.949zm-8.99 6.623l-.71-.715 3.782-3.78.72.697-3.793 3.798zm10.527 0L9.466 7.772l.72-.698 3.787 3.787-.71.709z" fill="#222"/></svg>