<svg width="16" height="16" viewBox="0 0 16 16" fill="none" xmlns="http://www.w3.org/2000/svg">
<g clip-path="url(#clip0_227_17)">
<mask id="mask0_227_17" style="mask-type:luminance" maskUnits="userSpaceOnUse" x="0" y="0" width="16" height="16">
<path d="M16 0H0V16H16V0Z" fill="white"/>
</mask>
<g mask="url(#mask0_227_17)">
<path d="M14.8167 0H1.18067C0.528 0 0 0.516 0 1.15267V14.8473C0 15.4847 0.528 16 1.18067 16H14.8147C15.4667 16 16 15.4847 16 14.8473V1.15267C16 0.516 15.4667 0 14.8147 0H14.8167Z" fill="#0A66C2"/>
<path d="M11.2619 13.6345H13.6312L13.6319 9.4438C13.6319 7.38713 13.1879 5.80713 10.7872 5.80713C9.63195 5.80713 8.85862 6.44046 8.54062 7.04046H8.50995V5.99979H6.23395V13.6345H8.60328V9.85647C8.60328 8.86047 8.79195 7.89712 10.0272 7.89712C11.2439 7.89712 11.2619 9.03646 11.2619 9.92179V13.6345Z" fill="white"/>
<path d="M2.18262 3.57846C2.18262 4.3378 2.79528 4.95512 3.55795 4.95512C4.31728 4.95512 4.93395 4.3378 4.93395 3.57846C4.93395 2.8198 4.31795 2.20312 3.55795 2.20312C2.79595 2.20312 2.18262 2.8198 2.18262 3.57846Z" fill="white"/>
<path d="M2.36995 13.6345H4.74595V5.99979H2.36995V13.6345Z" fill="white"/>
</g>
</g>
<defs>
<clipPath id="clip0_227_17">
<rect width="16" height="16" fill="white"/>
</clipPath>
</defs>
</svg>
