<svg width="16" height="17" fill="none" xmlns="http://www.w3.org/2000/svg"><g clip-path="url(#clip0_207_141)"><path d="M9.71 16.5c-3.396 0-4.688-2.504-4.688-4.274V6.998h-1.61V4.932c2.42-.875 3.007-3.064 3.14-4.313C6.56.534 6.627.5 6.665.5h2.345v4.076h3.2v2.422H8.999v4.98c.011.667.25 1.58 1.472 1.58h.06c.42-.013.99-.136 1.29-.279l.771 2.284c-.29.424-1.6.916-2.77.936H9.7l.008.001z" fill="#36465D"/></g><defs><clipPath id="clip0_207_141"><path fill="#fff" transform="translate(0 .5)" d="M0 0H16V16H0z"/></clipPath></defs></svg>