<svg width="16" height="16" fill="none" xmlns="http://www.w3.org/2000/svg"><g clip-path="url(#clip0_227_17)"><mask id="a" style="mask-type:luminance" maskUnits="userSpaceOnUse" x="0" y="0" width="16" height="16"><path d="M16 0H0v16h16V0z" fill="#fff"/></mask><g mask="url(#a)"><path d="M14.817 0H1.18C.528 0 0 .516 0 1.153v13.694C0 15.485.528 16 1.18 16h13.635c.652 0 1.185-.515 1.185-1.153V1.153C16 .516 15.467 0 14.815 0h.002z" fill="#0A66C2"/><path d="M11.262 13.634h2.37v-4.19c0-2.057-.444-3.637-2.845-3.637-1.155 0-1.928.633-2.246 1.233H8.51V6H6.234v7.634h2.37V9.856c0-.996.188-1.959 1.423-1.959 1.217 0 1.235 1.14 1.235 2.025v3.712zM2.182 3.579a1.375 1.375 0 1 0 2.752 0 1.376 1.376 0 0 0-2.751 0zm.188 10.056h2.376V6H2.37v7.634z" fill="#fff"/></g></g><defs><clipPath id="clip0_227_17"><path fill="#fff" d="M0 0H16V16H0z"/></clipPath></defs></svg>