<svg width="16" height="16" viewBox="0 0 16 16" fill="none" xmlns="http://www.w3.org/2000/svg">
<path d="M6.66647 3.33317H5.46647C4.71973 3.33317 4.34609 3.33317 4.06087 3.4785C3.80999 3.60632 3.60616 3.81015 3.47833 4.06104C3.33301 4.34625 3.33301 4.7199 3.33301 5.46664V10.5333C3.33301 11.28 3.33301 11.6532 3.47833 11.9384C3.60616 12.1893 3.80999 12.3935 4.06087 12.5213C4.34581 12.6665 4.719 12.6665 5.46428 12.6665H10.5351C11.2803 12.6665 11.653 12.6665 11.9379 12.5213C12.1888 12.3935 12.3933 12.1891 12.5211 11.9382C12.6663 11.6533 12.6663 11.2805 12.6663 10.5352V9.33317M13.333 5.99984V2.6665M13.333 2.6665H9.99967M13.333 2.6665L8.66634 7.33317" stroke="black" stroke-width="1.33333" stroke-linecap="round" stroke-linejoin="round"/>
</svg>
