<svg width="16" height="16" viewBox="0 0 16 16" fill="none" xmlns="http://www.w3.org/2000/svg">
<g clip-path="url(#clip0_337_15)">
<path d="M4.24707 14.3672C3.57259 14.3672 3.0599 14.1963 2.70898 13.8545C2.35807 13.5127 2.18262 13.0046 2.18262 12.3301V5.0293H3.2832V12.3848C3.2832 12.6901 3.36523 12.9248 3.5293 13.0889C3.69336 13.2529 3.92806 13.335 4.2334 13.335H11.7598C12.0605 13.335 12.293 13.2529 12.457 13.0889C12.6257 12.9248 12.71 12.6901 12.71 12.3848V5.0293H13.8105V12.3301C13.8105 13 13.6351 13.5059 13.2842 13.8477C12.9333 14.194 12.4206 14.3672 11.7461 14.3672H4.24707ZM5.74414 8.29688C5.59831 8.29688 5.47982 8.2513 5.38867 8.16016C5.30208 8.06901 5.25879 7.94824 5.25879 7.79785V7.5791C5.25879 7.42871 5.30208 7.31022 5.38867 7.22363C5.47982 7.13249 5.59831 7.08691 5.74414 7.08691H10.2559C10.4017 7.08691 10.5202 7.13249 10.6113 7.22363C10.7025 7.31022 10.748 7.42871 10.748 7.5791V7.79785C10.748 7.94824 10.7025 8.06901 10.6113 8.16016C10.5202 8.2513 10.4017 8.29688 10.2559 8.29688H5.74414ZM2.46289 5.54199C2.04362 5.54199 1.72233 5.41895 1.49902 5.17285C1.27572 4.92676 1.16406 4.59635 1.16406 4.18164V3.14258C1.16406 2.72331 1.28027 2.3929 1.5127 2.15137C1.74512 1.90527 2.06185 1.78223 2.46289 1.78223H13.5303C13.9495 1.78223 14.2708 1.90527 14.4941 2.15137C14.7174 2.3929 14.8291 2.72331 14.8291 3.14258V4.18164C14.8291 4.59635 14.7174 4.92676 14.4941 5.17285C14.2708 5.41895 13.9495 5.54199 13.5303 5.54199H2.46289ZM2.74316 4.50977H13.2568C13.43 4.50977 13.5508 4.47103 13.6191 4.39355C13.6921 4.31608 13.7285 4.19303 13.7285 4.02441V3.2998C13.7285 3.12663 13.6921 3.00358 13.6191 2.93066C13.5508 2.85319 13.43 2.81445 13.2568 2.81445H2.74316C2.56999 2.81445 2.44694 2.85319 2.37402 2.93066C2.30111 3.00358 2.26465 3.12663 2.26465 3.2998V4.02441C2.26465 4.19303 2.30111 4.31608 2.37402 4.39355C2.44694 4.47103 2.56999 4.50977 2.74316 4.50977Z" fill="#222222"/>
</g>
<defs>
<clipPath id="clip0_337_15">
<rect width="16" height="16" fill="white"/>
</clipPath>
</defs>
</svg>
