<svg width="16" height="16" fill="none" xmlns="http://www.w3.org/2000/svg"><g clip-path="url(#clip0_227_23)"><path d="M15.485 3.542C15.252 1.823 13.741.469 11.95.206 11.647.161 10.501 0 7.85 0h-.02C5.175 0 4.605.161 4.303.206 2.561.461.971 1.679.585 3.418.4 4.275.38 5.225.414 6.095c.05 1.25.059 2.497.173 3.741.079.827.217 1.647.414 2.453.366 1.492 1.851 2.732 3.306 3.238a8.943 8.943 0 0 0 4.838.254 7.08 7.08 0 0 0 .524-.142c.39-.123.846-.26 1.182-.502a.038.038 0 0 0 .016-.029v-1.206a.035.035 0 0 0-.014-.027.036.036 0 0 0-.014-.007.036.036 0 0 0-.016 0 13.522 13.522 0 0 1-3.14.363c-1.82 0-2.308-.856-2.449-1.212a3.728 3.728 0 0 1-.213-.955.036.036 0 0 1 .028-.036.035.035 0 0 1 .016 0 13.27 13.27 0 0 0 3.088.364c.251 0 .5 0 .75-.007 1.047-.029 2.15-.082 3.179-.281.025-.005.051-.01.073-.016 1.624-.31 3.169-1.28 3.326-3.736.006-.097.02-1.013.02-1.113.002-.342.112-2.42-.016-3.697z" fill="#6364FF"/><path d="M11.28 9.672h1.707l.002-4.27c0-.874-.225-1.567-.675-2.08-.464-.513-1.073-.777-1.826-.777-.874 0-1.534.333-1.974 1l-.425.706-.425-.707c-.44-.665-1.1-.999-1.975-.999-.755 0-1.363.263-1.827.776-.449.514-.674 1.207-.674 2.08v4.271h1.705V5.527c.001-.873.372-1.318 1.113-1.318.821 0 1.232.526 1.232 1.566v2.27h1.698V5.776c0-1.04.41-1.567 1.23-1.567.747 0 1.114.445 1.114 1.318v4.145z" fill="#fff"/></g><defs><clipPath id="clip0_227_23"><path fill="#fff" d="M0 0H16V16H0z"/></clipPath></defs></svg>