<svg width="16" height="16" fill="none" xmlns="http://www.w3.org/2000/svg"><g clip-path="url(#clip0_227_77)"><path d="M7.25 9.567l-1.586.609c-.109.042-.208.02-.298-.064a.247.247 0 0 1-.063-.297L5.94 8.25l6.407-6.4 1.317 1.31L7.25 9.566zm6.945-6.932L12.878 1.32l.645-.638c.16-.16.349-.247.566-.262a.664.664 0 0 1 .545.184l.22.22a.747.747 0 0 1 .233.58.894.894 0 0 1-.262.588l-.63.644z" fill="#000"/><path d="M.41 6.586c0-.906.149-1.746.446-2.52A5.943 5.943 0 0 1 2.138 2.04 5.862 5.862 0 0 1 4.156.689C4.939.363 5.815.2 6.782.2c.737 0 1.47.111 2.202.333a8.973 8.973 0 0 1 2.103.927l-1.07 1.077a7.644 7.644 0 0 0-1.628-.673 6.257 6.257 0 0 0-1.713-.24c-.982 0-1.836.212-2.563.636a4.435 4.435 0 0 0-1.685 1.756c-.401.741-.602 1.586-.602 2.535 0 .642.095 1.293.283 1.954.19.656.472 1.296.85 1.919a8.19 8.19 0 0 0 1.43 1.727 8.827 8.827 0 0 0 2.018 1.374c.77.392 1.64.684 2.613.878.221.052.387.137.495.255.113.122.17.278.17.467a.63.63 0 0 1-.12.396.6.6 0 0 1-.319.22 1.008 1.008 0 0 1-.467.035 8.597 8.597 0 0 1-2.429-.665 10.1 10.1 0 0 1-2.272-1.36A10.37 10.37 0 0 1 2.18 11.82 9.218 9.218 0 0 1 .877 9.397a8.383 8.383 0 0 1-.467-2.81zM15.57 8.732c0 .873-.19 1.645-.567 2.315a3.986 3.986 0 0 1-1.557 1.557c-.666.373-1.435.56-2.309.56-.566 0-1.14-.08-1.72-.24a7.592 7.592 0 0 1-1.664-.688 7.663 7.663 0 0 1-1.465-1.076l1.543-.609a6.15 6.15 0 0 0 1.558.949 4.431 4.431 0 0 0 1.685.347c.566 0 1.085-.127 1.557-.382a2.886 2.886 0 0 0 1.126-1.084c.279-.472.418-1.024.418-1.656 0-.576-.097-1.147-.29-1.714a7.05 7.05 0 0 0-.8-1.628L14.13 4.32a8.577 8.577 0 0 1 1.048 2.088c.26.746.39 1.52.39 2.323z" fill="#FF8133"/></g><defs><clipPath id="clip0_227_77"><path fill="#fff" d="M0 0H16V16H0z"/></clipPath></defs></svg>