<svg width="16" height="16" fill="none" xmlns="http://www.w3.org/2000/svg"><path d="M5.397 3.277c0-.483.117-.92.35-1.314.232-.398.545-.715.939-.952A2.498 2.498 0 0 1 8 .655c.482 0 .92.119 1.314.356s.707.554.94.952c.236.393.355.831.355 1.314 0 .398-.083.768-.248 1.11-.165.34-.389.631-.673.877a2.53 2.53 0 0 1-.97.514v3.986c0 .406-.024.777-.07 1.111-.047.33-.106.616-.178.857a2.23 2.23 0 0 1-.235.559c-.085.127-.163.19-.235.19-.072 0-.15-.063-.235-.19a2.6 2.6 0 0 1-.235-.56 6.48 6.48 0 0 1-.184-.856 8.094 8.094 0 0 1-.07-1.11V5.777a2.535 2.535 0 0 1-.964-.514 2.727 2.727 0 0 1-.673-.876 2.583 2.583 0 0 1-.242-1.111zm1.867.146a.846.846 0 0 0 .628-.267.86.86 0 0 0 .267-.628.839.839 0 0 0-.267-.622.846.846 0 0 0-.628-.267.853.853 0 0 0-.622.267.839.839 0 0 0-.267.622c0 .241.089.45.267.628a.853.853 0 0 0 .622.267z" fill="#000"/><path d="M8 15.09c-1.04 0-1.976-.08-2.805-.241-.825-.157-1.53-.377-2.114-.66-.58-.28-1.024-.604-1.333-.972-.305-.364-.457-.753-.457-1.168 0-.347.095-.668.286-.964.19-.297.448-.563.774-.8a5.234 5.234 0 0 1 1.117-.622 7.89 7.89 0 0 1 1.32-.426c.466-.105.925-.169 1.378-.19v1.257a7.035 7.035 0 0 0-1.155.165c-.39.089-.75.205-1.08.349a2.71 2.71 0 0 0-.786.501c-.2.19-.299.396-.299.616 0 .275.127.525.381.75.254.228.612.422 1.073.583.461.16 1.005.286 1.631.375.63.093 1.32.14 2.07.14.744 0 1.43-.047 2.056-.14a8.355 8.355 0 0 0 1.638-.381c.461-.161.819-.354 1.073-.578.258-.224.387-.474.387-.749 0-.22-.102-.425-.305-.616a2.808 2.808 0 0 0-.793-.501 5.896 5.896 0 0 0-1.073-.35 6.919 6.919 0 0 0-1.162-.164V9.047c.457.021.916.085 1.378.19.465.106.907.248 1.326.426.42.173.792.38 1.118.622.33.237.588.503.774.8.19.296.286.617.286.964 0 .415-.155.804-.464 1.168-.305.368-.747.692-1.326.971-.58.284-1.285.504-2.114.66-.825.161-1.759.242-2.8.242z" fill="#02D174"/></svg>