<svg width="650" height="650" viewBox="0 0 650 650" fill="none" xmlns="http://www.w3.org/2000/svg">
<rect width="650" height="650" fill="#FF5454"/>
<g clip-path="url(#clip0_256_440)">
<path d="M436.738 283.097H324.999V173.362L213.26 366.901H324.999V476.636L436.738 283.097Z" fill="white"/>
<path d="M325 68C183.062 68 68 183.062 68 325C68 466.938 183.062 582 325 582C466.938 582 582 466.938 582 325C582 183.062 466.938 68 325 68ZM548.478 325C548.478 448.425 448.425 548.478 325 548.478C201.575 548.478 101.522 448.425 101.522 325C101.522 201.575 201.575 101.522 325 101.522C448.425 101.522 548.478 201.575 548.478 325Z" fill="white"/>
</g>
<defs>
<clipPath id="clip0_256_440">
<rect width="514" height="514" fill="white" transform="translate(68 68)"/>
</clipPath>
</defs>
</svg>
