<svg fill="none" height="32" viewBox="0 0 32 32" width="32" xmlns="http://www.w3.org/2000/svg" xmlns:xlink="http://www.w3.org/1999/xlink"><clipPath id="a"><path d="m0 0h32v32h-32z"/></clipPath><g clip-path="url(#a)"><path d="m0 0h32v32h-32z" fill="#012677"/><path d="m16.2539-.100586c8.8256 0 16 7.174396 16 15.999986 0 8.8256-7.1744 16-16 16-8.82538-.0002-15.999955-7.1746-15.999994-16 0-8.82545 7.174594-15.99976 15.999994-15.999986z" fill="#012677"/><path d="m15.9458 15.0543c.0575-.0255.109-.0247.1601.0264.1471.1468.339.1854.5371.1982.096 0 .199.0127.295.0127.0829.0001.1025.045.1025.1153 0 .1663.0127.3327.0127.499.0128.6208.0247 1.2484.0439 1.8691.0192.7231.0521 1.44.0713 2.1631.0192.5631.0312 1.1264.044 1.6895.0064.2751.0198.5568.039.832.0193.307.2365.5185.5498.5762.2688.0512.519-.0131.7686-.0899.6207-.1984 1.1841-.5053 1.7217-.8701.0768-.0512.0767-.0967.0127-.1543-.0768-.0704-.141-.1474-.2178-.2178-.2366-.2175-.2431-.486-.1855-.7675.0512-.2368.1919-.3843.4287-.4483.32-.0832.6404-.1721.9668-.2617.3198-.0896.5757-.2882.8125-.5186.2624-.256.5184-.5188.7744-.7812.1535-.1599.3331-.2561.5635-.2305.2557.0321.4536.2243.5048.4737.032.1534.0004.3007-.0634.4287-.1408.2623-.2948.5248-.4356.7871-.1984.3648-.3837.7369-.4541 1.1465-.0511.3006-.0516.6075-.0771.9082-.0128.1215-.0193.2495-.0577.3711-.1279.4223-.6075.6337-1.0107.4482-.2304-.1024-.3908-.2753-.5508-.4609-.016-.0213-.0353-.0434-.0527-.0684-.0162.0153-.0415.0391-.0498.0557-.0704.1598-.2173.2429-.3516.3388-.7424.5184-1.5744.8775-2.3808 1.2871-.4032.2048-.8191.3903-1.1582.6846-.3008.2624-.5632.57-.8448.8516-.0447.0447-.09.0953-.1347.1465-.0768.0767-.102.0767-.1787 0-.1791-.2047-.3649-.4028-.544-.6075-.3904-.4352-.8839-.7235-1.4023-.9795-.5568-.2815-1.1265-.5445-1.6768-.8388-.3711-.1984-.717-.4352-1.0625-.6719-.0957-.064-.1534-.1786-.2363-.2744-.0768.0895-.16.179-.2432.2685-.1407.1536-.3138.2682-.5185.3194-.3968.1024-.81973-.1787-.89653-.5947-.01279-.0832-.02538-.1664-.02539-.2432.032-.8191-.21106-1.555-.62695-2.2461-.1344-.2176-.26283-.4483-.36523-.6787-.16633-.3776.04561-.7748.44238-.8516.19822-.0382.37058.0327.50488.167.1728.1664.3335.3522.51274.5186.2174.2046.4348.4092.665.5947.1727.1471.3841.23.6016.2812.243.0576.4864.1216.7295.1856.1023.0256.1985.0773.288.1221.1728.0832.244.2495.2696.4287.0191.1279.0191.2559 0 .3838-.0192.096-.0776.1859-.1416.2627-.1024.1279-.2238.2368-.3389.3584.0192.0192.0446.0579.083.0771.6143.4287 1.2672.7617 1.9902.9473.2304.0576.4675.0506.6914-.0518.2112-.096.333-.2564.3458-.4932.0191-.4861.0448-.9786.0576-1.4648.0256-.8384.0515-1.6772.0771-2.5156.0128-.4798.0257-.9597.0449-1.4395.0192-.5568.038-1.1141.0508-1.6709 0-.083.0383-.1277.1084-.1533.1408-.0576.2758-.1157.4102-.1797zm3.7949 8.999c.0319-.0191.0827-.0006.1211.0059.3775.1408.7174.3454.999.627.2751.2751.275.7425 0 1.0625-.2111.2559-.4863.3389-.7998.2558-.512-.1344-.9856-.3583-1.376-.7295-.1344-.1216-.2436-.2621-.25-.4541v-.0508l.0127.0059c.1408.0832.2754.16.4033.2432.192.1152.3843.2178.6211.205.064.0001.1344.0321.1983.0577.1599.0639.3264.1348.4863.1923.1343.0511.269.0125.333-.0898.0576-.0895.0445-.2752-.0449-.3457-.1664-.1344-.3462-.25-.5254-.3652-.1854-.1215-.3771-.2433-.5625-.3584 0-.0127-.0004-.0255.0059-.0381.1279-.0768.2499-.1533.3779-.2237zm-.543.2686c.1087.0576.2176.1284.3135.2051.166.1218.1527.4158-.0264.5117-.0446.0254-.1081.0317-.1591.0254-.3233-.0507-.5525-.2774-.8428-.4434.2037-.1082.3889-.2096.5801-.2988.0384-.0192.1027-.0128.1347 0zm-.7148.2988-.002.002-.0068-.0069c.0029.0017.0059.0033.0088.0049zm-5.3281-3.4668c.0704.192.1663.3646.3134.5117.0832.0832.1792.1284.3008.1348.16.0065.3774.1859.4414.333.0384.0895.0963.1787.1602.249.1088.1216.2368.2247.3584.3399v.0312c-.064.0064-.1216.0264-.1856.0264-.2432-.0192-.4486-.1219-.6406-.2627-.2687-.1919-.5184-.4037-.7168-.666-.1023-.1343-.1792-.2948-.2432-.4482-.075-.1947.0157-.3773.0977-.5655.038.1076.0763.2152.1143.3164zm1.5107.5498c.1344.0576.269.1219.3906.2051.0446.0321.057.1027.0889.1602-.0062.0001-.0123.0064-.0186.0127h.0059c-.0128.1536-.0189.3073-.0381.4609-.0128.0896-.0511.1083-.1279.0635-.1919-.1279-.3775-.2555-.5694-.377-.1024-.0704-.1281-.167-.1025-.2822.0193-.115.0704-.2239.1982-.2559.0576-.0127.1218-.0064.1729.0127zm.3525.0196-.0068.0127c0-.0056 0-.0111 0-.0166.0023.001.0045.0029.0068.0039zm-1.0117-1.2608c.1536.1024.3143.1924.4551.3076.1599.128.3133.2754.4668.4161.0639.0575.0894.1278.083.2109-.0061.0978-.0005.2016 0 .3223-.0859-.0374-.1492-.0737-.2178-.0987-.0511-.0254-.1149-.0321-.166-.0576-.0639-.032-.1221-.0695-.1797-.1142-.0448-.0384-.064-.0965-.1152-.1221-.1469-.0832-.1917-.2177-.2236-.3711-.0256-.128-.0706-.2496-.1026-.3711-.0064-.032-.0121-.0706-.0185-.1025.0062-.0006.0123-.0133.0185-.0196zm-1.082-1.6767c.1405-.0511.2303-.0194.3262.1211.1407.1982.1855.4353.2558.6591.16.5183.3205 1.0306.4805 1.5489.0192.0511.0253.109.0381.1601l.0058.0069c-.0064.1535-.0897.2688-.2304.3007-.1471.0382-.3003-.0258-.3643-.1728-.0576-.128-.0964-.2626-.1348-.3906-.1791-.5824-.3647-1.1648-.5439-1.7471-.0192-.0512-.0444-.1026-.0508-.1602-.0191-.1407.0706-.2749.2178-.3261zm.1162 2.0517c-.0004-.0012-.0005-.0027-.001-.0039l.0059-.0058c-.0015.0033-.0034.0064-.0049.0097zm-.3594-3.5107.0069.0185c-.0512.128-.103.2627-.167.3907-.064.1408-.1145.2946-.0889.4482.0128.0831.0378.1856.0889.2432.1536.1728.1283.3587.0771.5507-.0319.1086-.0382.2045-.0127.3067.0512.192.0963.391.1475.583 0 .019 0 .0382.0127.0889-.0896-.0384-.1733-.0578-.2373-.1026-.2045-.1471-.2877-.3708-.3389-.6074-.0896-.4223-.122-.8448-.0644-1.2734.0384-.256.1411-.474.3779-.6084.0511-.032.1153-.038.1728-.0635.0065.0064.0191.019.0254.0254zm.9658.4346c.2176.3264.2819 1.5368.0899 1.8056-.0192-.0447-.0385-.0769-.0576-.1152-.1024-.224-.1789-.4613-.3389-.6533-.1023-.1217-.0701-.3901.0195-.5245.0832-.1215.1465-.2499.2168-.3779.0256-.0448.0453-.0899.0645-.1347zm-.2294-1.8624c.0833-.2108.2944-.2743.4863-.1591.0955.0575.1084.1338.0957.2295h.0254c-.032.128-.0578.2563-.1026.3779-.2432.6144-.4926 1.2294-.7422 1.8437-.0768.1981-.2683.2933-.4345.2295-.128-.0511-.2052-.185-.1797-.3193.0128-.0704.0262-.1343.0517-.1982.2624-.6656.5311-1.3384.7999-2.004zm1.9189-.4345c-.0451.3329-.8897 1.1646-1.3057 1.2734.0384-.1408.0706-.2816.1026-.416.0128-.0448.0254-.09.0254-.1348.0001-.0958.039-.1724.1093-.2363.0832-.0768.1663-.1605.2559-.2373.0256-.0255.0579-.0449.0898-.0576.2175-.064.4353-.1212.6592-.1787.0191-.0001.0382-.0064.0635-.0127zm-.709-1.0821c.1407.0129.2623.0575.3838.1534h-.0059c-.1663.0831-.3269.1537-.4804.2304-.1856.0896-.3268.2242-.4356.4034-.0895.147-.23.2622-.3515.3837-.0192.0192-.0642.0264-.1026.0264-.1535 0-.2626.0766-.333.2109l-.2558.5118c-.0959-.064-.1089-.16-.1153-.2559-.0191-.2111.0449-.3971.1729-.5635.2687-.3582.5825-.665.9599-.9082.1728-.1088.3459-.2116.5635-.1924zm6.4961-3.2255c.3135.0001.5499.1415.7227.3974.1471.2176.2182.4672.2246.7295.0128.4095.0126.819.0254 1.2285 0 .0896-.0006.1727-.1094.1983-.0063.0005-.0123.0132-.0186.0195 0 .0014-.0008.0134-.0068.0254l-.0059.0068c.774.2625.9337.9595.8633 1.3819-.1088.6591-.6139.9917-1.081 1.0429-.704.0768-1.1711-.3516-1.3311-.8252-.1152-.3327-.0959-.6653.0576-.9853.1536-.3199.4155-.5121.7481-.6465-.2044-.0449-.1469-.1925-.1533-.3076v-.7744c-.0001-.3262-.1728-.4926-.4991-.4991-.992 0-1.9777-.0126-2.9697-.0126h-.1152c-.0192-.3264-.0448-.6464 0-.9727.0318 0 .0512-.0068.0703-.0068zm-4.6348 2.8545c.1728.0128.2947.1028.3331.25.0318.1215-.0576.288-.1983.3584-.1663.0831-.3327.1595-.499.2363-.4736.224-.9415.4479-1.4151.6719-.211.1022-.4278-.0126-.4599-.2364-.0192-.1279.0701-.2684.2236-.3388.3136-.1536.6274-.3011.9346-.4483.2879-.1407.5754-.2758.8633-.4101.0704-.032.1415-.0512.2119-.0704zm2.0489-.1729c-.0128.2751-.0902.5055-.3076.6719-.2944.2176-.6339.3331-.9795.4355-.2624.0768-.5316.1282-.8067.1026-.083-.0066-.1601-.0516-.2431-.0772v-.0381c.128-.0576.2567-.1152.3847-.1728.0703-.0383.1467-.0769.1914-.128.16-.1792.3845-.2239.5957-.3007.0191-.0063.0505-.0005.0635.0058.1664.1024.3269.0578.4805-.0254.2047-.1087.4026-.2305.5498-.416.0128-.0192.0393-.032.0713-.0576zm-2.2266-6.26562c.2558.05762.4282.23055.4922.48632.0128.0512.0195.1094.0195.167.0128.55667.0258 1.12008.0449 1.67675.0065.20465.0385.40955.0577.61425.0128.1278.0702.23.1787.294.1344.0768.1665.1799.1601.3271-.0127.3902.0006.7807-.0058 1.1709-.0001.0574-.0321.1213-.0576.1787-.0512.1152-.1159.231-.1543.3526-.032.1022-.0829.173-.1788.2177-.2366.1152-.4733.2237-.6972.3516-.224.128-.3971.3074-.4483.5762-.0064.0447-.0127.1027 0 .1474.0127.0958-.0199.1532-.1093.1787-.0447.0129-.0832.039-.1407.0645l-.0058.0058c.0064-.1087.0185-.1985.0185-.288v-1.0557c0-.1662-.057-.3261-.1464-.4668-.0768-.1152-.1094-.2377-.1094-.3721v-1.1191c0-.096.0326-.1729.1094-.2305.1599-.1152.2304-.2757.2304-.4804.0128-.63362.0379-1.26101.0635-1.89458.0064-.21111-.0128-.43513.1406-.61426 0 0 .0063-.01313.0127-.01953.1344-.17277.295-.31335.5254-.26855zm.6787 6.68162-.0127-.0127h.0049c.0027.0042.0052.0086.0078.0127zm-.0263-.333c.0127 0 .0445.0383.0449.0576v.2627h-.0264c-.0421-.0661-.084-.1321-.1201-.1982-.0128-.0192-.0064-.0644 0-.0772.0256-.0253.0697-.0385.1016-.0449zm2.6562-1.6064c.1024 0 .1347.0385.1348.1728h.0127c0 .0896-.0711.1796-.1543.25-.1791.1535-.3585.3002-.544.4473-.3968.32-.7931.6341-1.1963.9541-.2047.1599-.4735.0832-.5312-.1533-.032-.1472.045-.2561.1474-.3457.16-.1344.32-.2631.4864-.3975.3582-.2879.7164-.5822 1.081-.8701.0576-.0448.141-.0576.2178-.0576.1152-.0064.2305 0 .3457 0zm-1.7676.7617c.006 0 .018.0001.0459.0107-.1066.0878-.2003.1642-.2822.2461-.096.0896-.1794.1854-.2754.2686-.0448.0384-.0963.0706-.1475.0898-.2686.0832-.5375.1595-.7998.249-.1408.0448-.2752.109-.416.1602-.0384.0128-.0704.0257-.1152.0449-.0384-.1214-.0194-.2303.0508-.3135.0832-.1024.1666-.2118.2754-.2822.5055-.3264 1.0561-.512 1.664-.4736zm2.5-.6778c-.1232.5282-.4861.9785-1.0595.8702.0256-.032.0388-.058.0644-.0772.1471-.1343.2875-.2754.4346-.4033.0895-.0832.1606-.1661.1543-.2939 0-.0576.0254-.0772.083-.0772.1014 0 .2092-.0121.3232-.0186zm-2.4482.6905c-.0019-.0008-.0041-.0013-.0059-.002.0018-.0014.0041-.0024.0059-.0039zm-7.4492-2.4639c.3583-.2686.7554-.339 1.1777-.1982.4222.1344.6779.4485.8379.8515h.0381c.0064-.0319.0199-.0705.0263-.1152h2.3936c.0766 0 .1211.0126.1211.0957.0064.2112.019.4226.0254.6338 0 .019.0004.0318-.0059.0508-.0128.1322-.0897.1982-.2304.1982h-2.2081c-.0511 0-.0765-.0125-.0957-.0635-.0128-.0448-.0324-.0833-.0644-.1601-.2496.6847-.7294.9916-1.4141.9277-.3392-.032-.6213-.2047-.8261-.4863-.39022-.5376-.33214-1.3121.2246-1.7344zm8.3964 1.7861c-.0639.0512-.1282.0963-.2177.1602v-.1855h.2051c.0011.0022.0069.0138.0126.0253zm1.504-.0127h-.003c.0006-.0023.0024-.0044.003-.0068zm-.627-3.55855c.064.01922.1282.07718.1602.13477.0382.0703.057.15331.0634.23633.0256.45425.0453.91485.0645 1.36915.0064.1472.019.2887.0254.4551h-.5762c-.0192-.0003-.0508-.0327-.0508-.0518-.0127-.0511-.0195-.1027-.0195-.1601-.0256-.5375-.0447-1.07535-.0703-1.61919-.0126-.26216.173-.44101.4033-.36426zm-.4492 1.91305v.2051c-.0511.0064-.1023.019-.1533.0254l-.0254-.0254c.0512-.0704.1026-.1474.1474-.2178.0125.0001.0189.0065.0313.0127zm1.1914.2051c-.2813.0448-.2683.0318-.2363-.2178.0831.0768.1532.1411.2363.2178zm-2.2412-2.56443c.2034.08831.4253.14602.5967.2666.1471.10881.2432.29469.3584.44824.0126.01922.0058.05164.0058.07715v.53711c0 .032-.0127.07097-.0127.10937-.2681-.10212-1.0267-1.17243-.9482-1.43847zm.3984-.85352c.2751-.14709.5377-.17891.7871 0 .1472.1088.2886.23767.4102.37207.243.2879.428.62083.5752.97266.0959.24316.0708.48013-.0508.7041-.032.06381-.0901.10808-.1348.15918-.0124 0-.0188.00031-.0312-.00586-.0128-.0896-.0321-.18579-.0449-.27539-.0128-.10239-.0263-.21109-.0391-.31348-.032-.22391-.1273-.39085-.3447-.48047-.1471-.06393-.2054-.20407-.2119-.34472 0-.30711-.1915-.46143-.4346-.58301-.1216-.064-.2568-.10896-.3848-.16016-.0254-.01272-.0512-.02583-.083-.04492zm-3.2832-1.66406c.6335-.35824 1.2676-.313 1.8692.05175.4285.26237.6585.67834.7353 1.1709v.07032c0 .0192.0005.03278-.0059.08398l.0059.0127c-.0957-.02552-.1851-.03849-.2617-.07032-.1536-.064-.3079-.13457-.4551-.21777-.0639-.03199-.1154-.08309-.1601-.14063-.224-.28791-.4987-.47431-.8633-.5-.224-.0128-.4225.07102-.5889.22461-.256.2368-.4163.52496-.3779.87696.0193.16622.1024.33244.1855.47949.0832.1472.1149.29497.0957.46777-.0191.16623-.0253.33253-.0381.53711-.1215-.07677-.2434-.12819-.333-.21777-.403-.37115-.6782-.8129-.6718-1.37598.0064-.63992.3011-1.13315.8642-1.45312zm1.7608 2.96386-.0069-.00683c.0018-.00105.0031-.00285.0049-.00391.0006.00351.0014.00723.002.01074zm.0507-.88964c.1472.08957.3011.17311.4483.26269.0635.03827.0572.07644.0127.13379-.1396.18404-.2989.35475-.5137.48242-.0253-.15579-.057-.29953-.082-.44336-.0128-.07668-.0385-.15379-.045-.23047 0-.0512.0008-.10309.0264-.15429.032-.07014.0767-.10189.1533-.05078zm-.5185-.74903c.064-.15988.2109-.21775.4092-.14746.1982.07034.3902.16003.582.24317.4992.2176.9988.43572 1.498.65332.1344.05759.2173.14696.211.33886l-.0059-.00586c-.0002.17893-.122.28738-.333.24903-.128-.0256-.2563-.0572-.3779-.1084-.5886-.25592-1.1707-.51849-1.753-.77442-.0191-.00639-.0389-.01898-.0517-.02539-.1856-.096-.2491-.25005-.1787-.42285zm1.5918 1.19239c-.0016-.0007-.0033-.00126-.0049-.00196h.0059z" fill="#fff"/></g></svg>