<svg width="650" height="650" fill="none" xmlns="http://www.w3.org/2000/svg"><path fill="red" d="M0 0H650V650H0z"/><g clip-path="url(#clip0_260_531)"><path d="M549.62 211.31a59.083 59.083 0 0 0-41.595-41.597c-36.473-9.947-183.263-9.947-183.263-9.947s-146.798.301-183.271 10.248a59.08 59.08 0 0 0-41.595 41.598c-11.032 64.805-15.312 163.553.303 225.766a59.081 59.081 0 0 0 41.595 41.597c36.473 9.947 183.267 9.947 183.267 9.947s146.792 0 183.263-9.947a59.078 59.078 0 0 0 41.597-41.597c11.636-64.897 15.222-163.584-.301-226.068z" fill="#fff"/><path d="M278.041 394.875l121.774-70.533-121.774-70.533v141.066z" fill="red"/></g><defs><clipPath id="clip0_260_531"><path fill="#fff" transform="translate(90 159.766)" d="M0 0H470V330.469H0z"/></clipPath></defs></svg>