<svg width="650" height="650" fill="none" xmlns="http://www.w3.org/2000/svg"><path fill="#fff" d="M0 0H650V650H0z"/><g clip-path="url(#clip0_250_15)"><path d="M394.959 552.33c-19.313-9.657-31.765-29.732-31.765-51.332v-95.549c0-12.96-7.369-24.903-19.059-30.748-11.943-6.099-26.174-6.099-38.117 0-11.69 5.845-19.059 17.788-19.059 30.748v95.549c0 21.6-12.452 41.675-31.765 51.332-19.821 9.911-43.709 9.911-63.53 0-19.313-9.657-31.765-29.732-31.765-51.332V149.806c0-21.854 12.452-41.675 31.765-51.586 19.821-9.91 43.709-9.91 63.53 0 19.313 9.911 31.765 29.732 31.765 51.586v78.777c0 11.689 12.197 19.313 22.616 13.976l30.749-15.501c13.976-6.861 22.616-21.346 22.616-36.847v-40.659c0-21.6 12.452-41.675 31.765-51.332 19.821-9.91 43.708-9.91 63.53 0 19.313 9.657 31.764 29.732 31.764 51.332v106.476c0 16.009-9.148 30.748-23.378 37.863-4.321 2.287-4.321 9.403 0 11.69 14.23 7.115 23.378 21.854 23.378 37.863v157.3c0 21.6-12.451 41.675-31.764 51.332-19.568 10.165-43.455 10.165-63.276.254z" fill="#000"/><path d="M464.842 358.692v135.191c0 6.607-6.861 10.673-12.706 7.878-7.878-3.812-12.706-11.944-12.706-20.584V368.349c0-15.502-8.894-29.732-22.616-36.848l-72.678-36.338c-11.944-5.845-26.175-5.845-38.118 0l-9.148 4.574c-4.575 2.287-9.911-1.017-9.911-6.099 0-6.861 3.812-13.214 9.911-16.264l67.595-33.798c7.115-3.557 15.501-3.557 22.363 0 4.574 2.288 4.574 8.895 0 11.182l-17.026 8.386c-9.403 4.574-9.403 18.042 0 22.616l71.915 35.831c14.231 7.115 23.125 21.6 23.125 37.101z" fill="#fff"/><path d="M464.842 144.217v101.139c0 12.96-7.37 24.903-19.059 30.748l-7.878 4.066c-7.115 3.558-15.501 3.558-22.362 0-4.574-2.287-4.574-8.894 0-11.181l6.353-3.05c10.673-5.336 17.534-16.517 17.534-28.461V131.511c0-6.607 6.861-10.673 12.706-7.878 7.878 3.812 12.706 11.689 12.706 20.584z" fill="#F29E2D"/><path d="M446.29 526.663c0 5.334-8.759 9.657-19.567 9.657-10.807 0-19.567-4.323-19.567-9.657s8.76-9.656 19.567-9.656c10.808 0 19.567 4.322 19.567 9.656z" fill="#000"/><path d="M414.018 385.627v95.548c0 8.64-4.828 16.772-12.706 20.584-5.844 2.795-12.706-1.271-12.706-7.878v-95.548c0-8.64 4.829-16.772 12.706-20.584 5.845-3.049 12.706 1.271 12.706 7.878z" fill="#F29E2D"/><path d="M414.018 131.508v82.843c0 6.607-6.861 10.673-12.706 7.878-7.877-3.812-12.706-11.944-12.706-20.584v-57.431c0-8.64 4.829-16.771 12.706-20.583 5.845-3.05 12.706 1.27 12.706 7.877zM387.08 345.224c4.574 2.287 4.574 8.895 0 11.182-7.115 3.557-15.501 3.557-22.362 0l-16.772-8.386c-6.099-3.05-9.911-9.403-9.911-16.264 0-5.082 5.337-8.386 9.911-6.099l39.134 19.567z" fill="#000"/><path d="M312.369 331.756c0 6.862-3.812 13.214-9.91 16.264l-18.043 9.148c-13.976 6.861-22.616 21.346-22.616 36.847v112.829c0 8.64-4.829 16.772-12.706 20.584-5.845 2.795-12.706-1.271-12.706-7.878V169.629c0-8.64 4.828-16.772 12.706-20.584 5.844-2.795 12.706 1.271 12.706 7.878v163.652c0 11.69 12.197 19.313 22.616 13.977l18.043-9.149c4.574-2.287 9.91 1.271 9.91 6.353z" fill="#F29E2D"/><path d="M237.151 117.024c5.59 2.795 5.59 10.927 0 13.723-8.64 4.32-19.059 4.32-27.699 0-5.591-2.796-5.591-10.928 0-13.723 8.894-4.32 19.059-4.32 27.699 0z" fill="#fff"/><path d="M210.723 169.629v349.667c0 6.607-6.861 10.673-12.706 7.877-7.877-3.811-12.705-11.943-12.705-20.583V156.923c0-6.607 6.861-10.673 12.705-7.878 7.878 3.812 12.706 11.69 12.706 20.584z" fill="#000"/></g><defs><clipPath id="clip0_250_15"><path fill="#fff" transform="translate(159.9 90.787)" d="M0 0H330.1V468.976H0z"/></clipPath></defs></svg>