<svg width="650" height="650" fill="none" xmlns="http://www.w3.org/2000/svg"><path fill="#fff" d="M0 0H650V650H0z"/><path d="M315.183 372.875a101.058 101.058 0 0 0 43.411-26.432 109.522 109.522 0 0 0 31.182-77.01 113.625 113.625 0 0 0-10.742-48.337 86.263 86.263 0 0 0-17.555-24.322 117.728 117.728 0 0 0-43.603-28.849 12.617 12.617 0 0 0-15.447 6.189 12.607 12.607 0 0 0-1.364 5.842 12.462 12.462 0 0 0 4.734 9.867 83.95 83.95 0 0 1 6.737 5.861c14.01 13.56 21.02 38.261 21.03 74.102 0 35.596-6.585 60.598-19.757 75.007a72.356 72.356 0 0 1-8.34 7.796 11.216 11.216 0 0 0-4.396 8.716v1.197a10.823 10.823 0 0 0 4.415 8.76 10.813 10.813 0 0 0 9.679 1.59" fill="#000"/><path d="M357.875 452.692a495.537 495.537 0 0 0-92.071-11.071c-36.491-1.939-60.416-4.847-71.777-8.724-11.606-3.627-17.407-9.921-17.401-18.882 0-13.78 13.322-23.031 39.966-27.752a19.371 19.371 0 0 0 15.806-19.128 20.111 20.111 0 0 0-7.473-15.345 67.887 67.887 0 0 1-7.343-7.166c-12.788-14.532-19.182-37.414-19.182-68.647 0-33.667 5.56-58.856 16.681-75.567a55.061 55.061 0 0 1 13.143-13.926 10.824 10.824 0 0 0 4.204-8.739 11.157 11.157 0 0 0-4.739-9.217 11.16 11.16 0 0 0-10.276-1.348 123.37 123.37 0 0 0-37.726 23.255 99.593 99.593 0 0 0-35.708 77.187 103.184 103.184 0 0 0 17.409 58.488 155.572 155.572 0 0 0 51.844 46.496c-44.23 8.235-66.345 28.214-66.345 59.938a46.928 46.928 0 0 0 23.202 40.319c15.462 10.65 49.178 17.067 101.147 19.251 45.197 1.933 76.619 7.744 94.266 17.432 17.647 9.921 40.848 26.992 40.848 51.215a74.792 74.792 0 0 1-20.992 48.337l-.529.591a6.19 6.19 0 0 0-1.258 3.613 6.357 6.357 0 0 0 1.855 4.495 6.358 6.358 0 0 0 4.49 1.866 6.241 6.241 0 0 0 4.12-1.619l.545-.453a90.076 90.076 0 0 0 33.997-73.142 92.966 92.966 0 0 0-19.181-58.841 91.579 91.579 0 0 0-51.476-32.878m142.658-90.164c-19.504-.676-21.483-4.32-21.483-4.32a17.444 17.444 0 0 1-7.113-12.775c-.655-5.565-.982-19.074-.982-40.527V174.917a8.56 8.56 0 0 0-3.051-6.565 8.554 8.554 0 0 0-6.992-1.875l-58.312 10.397a5.66 5.66 0 0 0-4.673 5.585v.875a5.665 5.665 0 0 0 5.663 5.67h.959a64.653 64.653 0 0 1 19.243 1.964 16.151 16.151 0 0 1 8.823 9.821c2.205 5.243 3.31 19.652 3.315 43.227v60.913c0 22.44-.287 35.995-.86 40.665a16.613 16.613 0 0 1-6.138 12.038 57.291 57.291 0 0 1-25.526 4.995 5.67 5.67 0 1 0 .176 11.34h96.751a5.656 5.656 0 0 0 5.227-3.503 5.65 5.65 0 0 0 .428-2.167v-.069a5.669 5.669 0 0 0-5.455-5.662zm-58.567-238.62a24.546 24.546 0 0 0 22.727-15.114 24.552 24.552 0 1 0-22.727 15.114z" fill="#000"/></svg>