<svg width="650" height="650" fill="none" xmlns="http://www.w3.org/2000/svg"><path fill="#000" d="M0 0H650V650H0z"/><path d="M509.281 102.286H137.4v18.594l19.524 1.86c14.875 2.789 25.102 8.367 31.61 16.734 6.508 9.297 10.227 24.172 11.156 44.626 7.438 100.408 7.438 194.307 0 280.77-1.859 20.453-5.578 35.328-11.156 44.625-6.508 9.297-16.735 14.875-31.61 16.735l-19.524 2.789v18.594h239.863v-18.594l-25.102-1.86c-14.875-1.859-25.102-8.367-31.61-16.734-6.507-9.297-10.226-24.172-11.156-44.626-2.789-37.188-4.648-79.954-4.648-127.369l50.203.93c26.962.93 45.556 21.383 54.853 62.29h18.594V250.109h-18.594c-9.297 39.977-26.962 60.43-54.853 61.36l-50.203.93c0-83.674 1.859-143.174 4.648-179.433h73.446c52.064 0 87.392 33.47 107.846 100.408L513 226.866l-3.719-124.58z" fill="#fff"/></svg>