<svg fill="none" height="650" viewBox="0 0 650 650" width="650" xmlns="http://www.w3.org/2000/svg" xmlns:xlink="http://www.w3.org/1999/xlink"><clipPath id="a"><path d="m68 68h514v514h-514z"/></clipPath><path d="m0 0h650v650h-650z" fill="#ff5454"/><g clip-path="url(#a)" fill="#fff"><path d="m436.738 283.097h-111.739v-109.735l-111.739 193.539h111.739v109.735z"/><path d="m325 68c-141.938 0-257 115.062-257 257s115.062 257 257 257 257-115.062 257-257-115.062-257-257-257zm223.478 257c0 123.425-100.053 223.478-223.478 223.478s-223.478-100.053-223.478-223.478 100.053-223.478 223.478-223.478 223.478 100.053 223.478 223.478z"/></g></svg>