<svg width="650" height="650" fill="none" xmlns="http://www.w3.org/2000/svg"><path fill="#1C1C21" d="M0 0H650V650H0z"/><path d="M571.131 211.698c0-11.354 2.838-15.005 10.944-17.036l8.925-2.434v-7.304h-83.97v7.304l10.137 2.434c8.111 2.031 12.582 4.869 12.582 16.632v195.131c0 27.179-2.44 49.084-22.719 49.084-12.986 0-22.719-10.142-22.31-17.44 1.207-12.582 22.31-11.764 23.931-32.053 1.217-14.602-8.117-20.689-16.632-21.901-12.577-1.626-27.987 8.92-28.402 30.018-.409 27.178 17.446 51.928 47.873 51.928 33.674 0 59.641-22.719 59.641-66.132V211.698zm-129.047 180.12c0-83.163-91.274-105.068-91.274-165.512 0-12.981 4.869-32.457 25.148-32.457 29.21 0 40.165 37.73 45.034 83.572h7.708v-92.497h-4.869c-2.031 8.925-5.683 12.986-10.95 12.986-9.335 0-14.204-14.607-36.513-14.607-34.483 0-58.015 28.805-58.015 66.53 0 68.56 91.28 97.36 91.28 160.648 0 28.8-13.39 45.028-31.644 45.028-27.179 0-45.029-32.042-49.898-83.566h-7.707v92.491h4.869c4.056-13.385 9.329-14.602 13.788-14.602 7.713 0 15.825 16.229 39.352 16.229 36.109 0 63.691-31.235 63.691-74.243zm-307.029 73.429h16.632l37.725-199.59h-5.677l41.376 199.59h14.608l49.493-235.29c5.273-24.749 8.112-33.265 17.85-35.705l7.708-2.025v-7.304h-57.202v7.304l8.521 1.621c12.168 2.435 15.006 9.738 9.329 39.756l-32.047 157.809h4.869l-32.457-166.325c-3.248-15.825-5.273-28.805 8.116-31.24l8.92-1.621v-7.304h-78.293v7.304l5.273 1.217c8.117 2.025 9.334 6.9 12.576 22.315l12.577 60.444-2.434-36.513-27.992 147.667h3.651l-32.861-162.269c-3.651-16.633-4.869-29.209 8.112-31.644l6.092-1.217v-7.304H59.6v7.304l7.707 2.025c7.299 2.031 11.36 5.683 16.229 27.992l51.519 243.003z" fill="#fff"/></svg>