<svg fill="none" height="32" viewBox="0 0 32 32" width="32" xmlns="http://www.w3.org/2000/svg"><path d="m0 0h32v32h-32z" fill="#023e2c"/><g fill="#c8dd69"><path d="m11.3145 11.685c0-2.58742 2.0975-4.685 4.6849-4.685s4.685 2.09758 4.685 4.685c0 2.5875-2.0976 4.6851-4.685 4.6851s-4.6849-2.0976-4.6849-4.6851z"/><path d="m17.7074 17.8095c-1.2856 1.1291-2.3938 1.0523-3.7092-.2628-.848-.8481-2.0193-1.3726-3.3131-1.3726-2.58752 0-4.6851 2.0975-4.6851 4.685s2.09758 4.6851 4.6851 4.6851c1.2936 0 2.4649-.5245 3.3128-1.3722l3.7001-6.3422z" fill-opacity=".6"/><path d="m18.0024 24.172c.8478.8477 2.019 1.3722 3.3128 1.3722 2.5874 0 4.685-2.0976 4.685-4.6851s-2.0976-4.685-4.685-4.685c-1.2939 0-2.4653.5245-3.3131 1.3726-.1002.1001-.1968.1769-.2945.2628l-.0095.0203-3.7001 6.3422c1.4157-1.4158 2.5886-1.4158 4.0044 0z"/></g></svg>