<svg width="650" height="650" viewBox="0 0 650 650" fill="none" xmlns="http://www.w3.org/2000/svg">
<g clip-path="url(#clip0_258_457)">
<rect width="650" height="650" fill="black"/>
<path d="M345.466 0H0V650H345.466V0Z" fill="black"/>
<path fill-rule="evenodd" clip-rule="evenodd" d="M274.989 650L273.424 543.578C257.506 515.81 250.805 513.754 191.56 507.558C348.268 456.947 229.566 431.647 183.374 424.057C327.585 385.265 253.528 365.418 204.358 352.24C192.702 349.117 182.445 346.368 176.825 343.83C355.46 312.058 223.061 276.626 189.85 267.738C188.646 267.416 187.572 267.129 186.648 266.878C327.489 224.526 244.932 200.344 195.933 185.992C188.489 183.812 181.819 181.858 176.825 180.102C289.816 160.297 299.792 120.748 142.442 96.6006L119.52 124.434C246.972 141.324 245.796 155.256 0 163.565V193.468C308.288 218.788 230.404 234.839 0 247.23V279.976C303.465 302.44 198.327 311.508 93.1888 320.575C56.1905 323.766 19.1922 326.957 0 330.731V356.928C21.9471 360.257 53.0124 363.437 84.0777 366.617C195.213 377.992 306.348 389.367 0 407.586V440.625C216.185 453.579 301.892 463.623 3.27291 491.185L0 490.367V650H274.989Z" fill="white"/>
</g>
<defs>
<clipPath id="clip0_258_457">
<rect width="650" height="650" fill="white"/>
</clipPath>
</defs>
</svg>
