<svg width="650" height="650" fill="none" xmlns="http://www.w3.org/2000/svg"><g clip-path="url(#clip0_258_457)"><path fill="#000" d="M0 0H650V650H0z"/><path d="M345.466 0H0v650h345.466V0z" fill="#000"/><path fill-rule="evenodd" clip-rule="evenodd" d="M274.989 650l-1.565-106.422c-15.918-27.768-22.619-29.824-81.864-36.02 156.708-50.611 38.006-75.911-8.186-83.501 144.211-38.792 70.154-58.639 20.984-71.817-11.656-3.123-21.913-5.872-27.533-8.41 178.635-31.772 46.236-67.204 13.025-76.092-1.204-.322-2.278-.609-3.202-.86 140.841-42.352 58.284-66.534 9.285-80.886-7.444-2.18-14.114-4.134-19.108-5.89 112.991-19.805 122.967-59.354-34.383-83.501l-22.922 27.833C246.972 141.324 245.796 155.256 0 163.565v29.903c308.288 25.32 230.404 41.371 0 53.762v32.746c303.465 22.464 198.327 31.532 93.189 40.599C56.19 323.766 19.192 326.957 0 330.731v26.197c21.947 3.329 53.012 6.509 84.078 9.689 111.135 11.375 222.27 22.75-84.078 40.969v33.039c216.185 12.954 301.892 22.998 3.273 50.56L0 490.367V650h274.989z" fill="#fff"/></g><defs><clipPath id="clip0_258_457"><path fill="#fff" d="M0 0H650V650H0z"/></clipPath></defs></svg>