<svg width="650" height="650" viewBox="0 0 650 650" fill="none" xmlns="http://www.w3.org/2000/svg">
<rect width="650" height="650" fill="white"/>
<g clip-path="url(#clip0_260_545)">
<path d="M293.019 494.201L134.007 381.554C93.5183 352.82 53.5128 382.115 44.9841 412.344C32.4989 457.011 60.5028 494.201 104.509 494.201H293.019Z" fill="#FCCC12"/>
<path d="M543.245 494.214C587.251 494.214 615.254 457.024 602.769 412.357C594.285 382.081 554.235 352.787 513.746 381.568L354.735 494.214H543.245Z" fill="#05AC3F"/>
<path d="M444.594 232.048L363.001 430.101L339.701 257.978C336.712 234.571 374.166 220.18 374.166 220.18C370.738 212.097 358.912 212.238 358.912 212.238H333.59H333.546C329.501 169.908 365.682 139.071 404.721 148.509C443.144 157.666 457.036 202.006 444.594 232.048Z" fill="#6E55DC"/>
<path d="M313.905 215.036C319.795 171.305 282.911 138.926 243.038 148.551C204.615 157.662 190.723 202.001 203.164 232.09L284.758 430.144L313.905 215.036Z" fill="#EF1541"/>
<path d="M278.252 462.613L199.956 272.922C181.624 228.957 133.089 223.49 106.228 249.281C87.3687 267.456 72.6853 316.934 114.933 346.93L278.252 462.613Z" fill="#FF7112"/>
<path d="M532.83 346.93C575.078 316.981 560.395 267.456 541.536 249.281C514.719 223.49 466.184 228.957 447.808 272.922L369.512 462.613L532.83 346.93Z" fill="#069DE0"/>
</g>
<defs>
<clipPath id="clip0_260_545">
<rect width="567" height="356.4" fill="white" transform="translate(42 146.801)"/>
</clipPath>
</defs>
</svg>
