<svg width="390" height="390" viewBox="0 0 390 390" fill="none" xmlns="http://www.w3.org/2000/svg">
<g clip-path="url(#clip0_14_26)">
<rect width="390" height="390" fill="#DDDDDD"/>
<rect width="390" height="390" fill="url(#paint0_linear_14_26)"/>
<path d="M184.36 214.833C184.36 226.584 195 236.111 195 236.111C195 236.111 205.638 226.584 205.638 214.833C205.638 203.082 195 193.558 195 193.558C195 193.558 184.36 203.082 184.36 214.833Z" fill="white"/>
<path d="M250.932 187.615C244.904 204.177 225.021 212.148 225.021 212.148C225.021 212.148 214.912 193.263 220.941 176.7C226.969 160.136 246.852 152.166 246.852 152.166C246.852 152.166 256.96 171.051 250.932 187.615Z" fill="white"/>
<path d="M169.061 176.699C175.09 193.263 164.981 212.148 164.981 212.148C164.981 212.148 145.098 204.176 139.07 187.615C133.042 171.051 143.148 152.167 143.148 152.167C143.148 152.167 163.033 160.135 169.061 176.699Z" fill="white"/>
<path d="M171.062 115.098C171.062 141.538 194.998 162.969 194.998 162.969C194.998 162.969 218.938 141.538 218.938 115.098C218.938 88.6555 194.998 67.2222 194.998 67.2222C194.998 67.2222 171.062 88.6555 171.062 115.098Z" fill="white"/>
<path d="M192.778 287.222V273.889H126.111V322.778H192.778V309.444H139.444V305H192.778V291.667H139.444V287.222H192.778Z" fill="white"/>
<path d="M263.889 287.222V273.889H197.222V322.778H263.889V309.444H210.556V305H263.889V291.667H210.556V287.222H263.889Z" fill="white"/>
<path d="M106.111 322.778H57.2222V309.444H106.111C107.336 309.444 108.333 308.447 108.333 307.222C108.333 305.998 107.336 305 106.111 305H70.5556C61.9778 305 55 298.02 55 289.444C55 280.869 61.9778 273.889 70.5556 273.889H119.444V287.222H70.5556C69.3311 287.222 68.3333 288.22 68.3333 289.444C68.3333 290.669 69.3311 291.667 70.5556 291.667H106.111C114.689 291.667 121.667 298.647 121.667 307.222C121.667 315.798 114.689 322.778 106.111 322.778Z" fill="white"/>
<path d="M281.667 309.444H319.444C320.669 309.444 321.667 308.447 321.667 307.222V289.444C321.667 288.22 320.669 287.222 319.444 287.222H281.667V309.444ZM319.444 322.778H268.333V273.889H319.444C328.02 273.889 335 280.869 335 289.444V307.222C335 315.798 328.02 322.778 319.444 322.778Z" fill="white"/>
</g>
<defs>
<linearGradient id="paint0_linear_14_26" x1="195" y1="0" x2="195" y2="390" gradientUnits="userSpaceOnUse">
<stop stop-color="#333333"/>
<stop offset="1"/>
</linearGradient>
<clipPath id="clip0_14_26">
<rect width="390" height="390" fill="white"/>
</clipPath>
</defs>
</svg>
