<svg width="390" height="390" viewBox="0 0 390 390" fill="none" xmlns="http://www.w3.org/2000/svg">
<g clip-path="url(#clip0_383_37)">
<rect width="390" height="390" fill="#DDDDDD"/>
<rect width="390" height="390" fill="#FF5454"/>
<g clip-path="url(#clip1_383_37)">
<path d="M195 74.6323C185.242 74.6323 175.771 76.5456 166.85 80.3189C158.238 83.9614 150.505 89.1742 143.867 95.8122C137.229 102.45 132.016 110.183 128.374 118.795C124.601 127.716 122.687 137.187 122.687 146.945C122.687 156.703 124.601 166.174 128.374 175.095C132.016 183.707 137.229 191.44 143.867 198.078C150.505 204.716 158.238 209.928 166.85 213.571C175.771 217.344 185.242 219.258 195 219.258C204.758 219.258 214.229 217.344 223.15 213.571C231.762 209.928 239.495 204.716 246.133 198.078C252.771 191.44 257.984 183.707 261.626 175.095C265.4 166.174 267.313 156.703 267.313 146.945C267.313 137.187 265.4 127.716 261.626 118.795C257.984 110.183 252.771 102.45 246.133 95.8122C239.495 89.1742 231.762 83.9614 223.15 80.3189C214.229 76.5456 204.758 74.6323 195 74.6323ZM195 84.0644C229.728 84.0644 257.881 112.217 257.881 146.945C257.881 181.673 229.728 209.825 195 209.825C160.272 209.825 132.119 181.673 132.119 146.945C132.119 112.217 160.272 84.0644 195 84.0644Z" fill="white"/>
<path d="M226.44 135.155H195V104.279L163.56 158.735H195V189.611L226.44 135.155Z" fill="white"/>
<path d="M97.3676 272.884V272.704C97.3676 261.925 89.4631 252.943 78.3247 252.943C67.1867 252.943 59.4616 261.745 59.4616 272.525V272.704C59.4616 283.483 67.3662 292.465 78.5046 292.465C89.6426 292.465 97.3676 283.663 97.3676 272.884ZM87.8462 303.963C84.8819 304.771 81.6483 305.22 78.3247 305.22C58.9228 305.22 45.0001 290.759 45.0001 272.884V272.704C45.0001 254.829 59.1024 240.188 78.5046 240.188C97.9065 240.188 111.829 254.65 111.829 272.525V272.704C111.829 281.956 108.057 290.399 101.679 296.328L120.181 314.919V315.368H99.4312L87.8462 303.963Z" fill="white"/>
<path d="M117.227 287.166V255.997H130.881V282.854C130.881 289.322 133.934 292.645 139.144 292.645C144.354 292.645 147.678 289.322 147.678 282.854V255.997H161.331V304.143H147.678V297.316C144.534 301.358 140.492 305.041 133.575 305.041C123.245 305.041 117.227 298.214 117.227 287.166Z" fill="white"/>
<path d="M166.998 255.997H180.651V304.143H166.998V255.997ZM166.998 241.266H180.651V250.697H166.998V241.266Z" fill="white"/>
<path d="M186.901 294.531L211.783 267.045H187.71V255.997H228.76V265.608L203.788 293.094H228.76V304.143H186.901V294.531Z" fill="white"/>
<path d="M234.948 277.195V241.266H248.781V276.836C248.781 287.076 253.9 292.376 262.344 292.376C270.788 292.376 275.908 287.256 275.908 277.285V241.266H289.741V276.746C289.741 295.789 279.052 305.131 262.164 305.131C245.277 305.131 234.948 295.699 234.948 277.195Z" fill="white"/>
<path d="M331.347 280.16V279.98C331.347 271.986 325.957 266.686 319.58 266.686C313.202 266.686 307.903 271.986 307.903 279.98V280.16C307.903 288.154 313.202 293.454 319.58 293.454C325.957 293.454 331.347 288.244 331.347 280.16ZM294.429 255.997H308.082V262.913C311.406 258.422 315.987 255.099 323.083 255.099C334.311 255.099 345 263.901 345 279.98V280.16C345 296.238 334.49 305.041 323.083 305.041C315.807 305.041 311.316 301.717 308.082 297.855V315.369H294.429V255.997Z" fill="white"/>
</g>
</g>
<defs>
<clipPath id="clip0_383_37">
<rect width="390" height="390" fill="white"/>
</clipPath>
<clipPath id="clip1_383_37">
<rect width="300" height="240.737" fill="white" transform="translate(45 74.6317)"/>
</clipPath>
</defs>
</svg>
