<svg width="390" height="390" viewBox="0 0 390 390" fill="none" xmlns="http://www.w3.org/2000/svg">
<path d="M390 0H0V390H390V0Z" fill="url(#paint0_linear_14_24)"/>
<path d="M177.458 220.055H116.521L93.8224 276.338C91.7391 281.537 92.5008 287.704 96.3506 292.297C99.4866 296.04 103.997 297.952 108.525 297.914H169.402C172.938 297.898 176.489 296.696 179.41 294.247L225.869 255.313L177.458 220.055Z" fill="#FFBE1A"/>
<path d="M196.031 163.118L135.488 158.923C135.129 158.899 134.769 158.888 134.41 158.889H73.5333C68.2881 158.878 63.1396 161.487 60.1537 166.259C55.5537 173.611 57.784 183.301 65.1353 187.901L116.52 220.054H177.458L196.031 163.118Z" fill="#FF8133"/>
<path d="M255.92 163.188L241.201 104.313C239.831 98.8818 235.59 94.3396 229.775 92.887C228.456 92.5564 227.135 92.4049 225.835 92.4148C225.815 92.4148 164.978 92.414 164.959 92.4148C157.945 92.4414 151.574 97.1976 149.795 104.313L136.131 158.968L196.031 163.118L255.92 163.188Z" fill="#FF5454"/>
<path d="M225.908 204.375C225.911 204.368 225.913 204.36 225.915 204.352H225.939C225.942 204.36 225.944 204.367 225.946 204.374C225.94 204.379 225.934 204.384 225.927 204.389C225.921 204.384 225.914 204.38 225.908 204.375ZM333.141 173.578C332.542 164.927 325.042 158.399 316.391 158.998L255.919 163.188L241.201 104.313C239.83 98.8825 235.589 94.3404 229.775 92.887C221.362 90.7839 212.836 95.8996 210.732 104.313L196.031 163.119L135.488 158.924C129.9 158.549 124.27 161.18 121.091 166.26C116.491 173.612 118.721 183.301 126.073 187.902L177.458 220.055L154.76 276.338C152.677 281.537 153.438 287.704 157.287 292.297C162.858 298.945 172.762 299.818 179.409 294.247L225.869 255.314L272.382 294.293C276.683 297.881 282.784 299.062 288.342 296.82C296.385 293.577 300.276 284.427 297.032 276.384L274.36 220.167L325.805 187.975C330.547 184.994 333.556 179.557 333.141 173.578Z" fill="white"/>
<defs>
<linearGradient id="paint0_linear_14_24" x1="195" y1="0" x2="195" y2="390" gradientUnits="userSpaceOnUse">
<stop stop-color="#333333"/>
<stop offset="1"/>
</linearGradient>
</defs>
</svg>
