<svg width="390" height="390" fill="none" xmlns="http://www.w3.org/2000/svg"><g clip-path="url(#clip0_383_534)"><path fill="#4D1635" d="M0 0H390V390H0z"/><path fill="url(#paint0_linear_383_534)" d="M0 0H390V390H0z"/><path d="M195 60.035c-4.242 0-8.433 1.08-12.12 3.124a24.923 24.923 0 0 0-9.486 9.35L46.359 292.542a24.932 24.932 0 0 0-3.355 12.891 25.065 25.065 0 0 0 3.355 12.058 25.06 25.06 0 0 0 8.765 8.934 24.926 24.926 0 0 0 12.84 3.54h254.071c4.547 0 8.987-1.224 12.841-3.54a25.065 25.065 0 0 0 12.12-20.992 24.916 24.916 0 0 0-3.355-12.891L216.606 72.51a24.923 24.923 0 0 0-9.486-9.351A25.061 25.061 0 0 0 195 60.035z" fill="#000"/><path d="M195 67.164c-6.443 0-12.211 3.331-15.433 8.91L52.532 296.105c-3.221 5.58-3.221 12.241 0 17.821 3.221 5.579 8.99 8.91 15.433 8.91h254.07c6.443 0 12.212-3.331 15.433-8.91 3.221-5.58 3.221-12.241 0-17.821L210.433 76.074c-3.221-5.579-8.99-8.91-15.433-8.91z" fill="#fff"/><path d="M195 70.728c-5.154 0-9.77 2.664-12.346 7.128L55.618 297.887c-2.577 4.463-2.577 9.793 0 14.257 2.578 4.463 7.193 7.128 12.347 7.128h254.07c5.154 0 9.769-2.665 12.347-7.128 2.577-4.464 2.577-9.794 0-14.257L207.346 77.856c-2.576-4.464-7.192-7.128-12.346-7.128z" fill="#01C3A7"/><path d="M195.001 74.292c3.6 0 7.201 1.782 9.259 5.346l127.035 220.031c4.116 7.128-1.028 16.039-9.26 16.039H67.965c-8.23 0-13.375-8.911-9.26-16.039L185.741 79.638c2.057-3.564 5.658-5.346 9.26-5.346z" fill="#4D1635"/><path d="M195.001 74.292c3.6 0 7.201 1.782 9.259 5.346l127.035 220.031c4.116 7.128-1.028 16.039-9.26 16.039H67.965c-8.23 0-13.375-8.911-9.26-16.039L185.741 79.638c2.057-3.564 5.658-5.346 9.26-5.346z" fill="#000" fill-opacity=".5"/><path d="M133.501 272.652v.464c0 .998.392 1.818 1.105 2.139.463.249.998.356 2.352.356h9.945c2.281 0 3.172-.641 3.172-2.21 0-1.925-.926-2.174-6.558-2.245l-6.238-.107c-5.952-.107-7.984-.392-9.659-1.604-1.426-1.105-1.996-2.887-1.996-6.345 0-3.528.57-5.168 2.281-6.344 2.032-1.426 3.6-1.676 10.8-1.676 11.156 0 12.083.036 14.079.607 1.283.356 2.602 1.212 3.208 2.103.713.997 1.069 2.423 1.069 4.633v1.034h-7.77v-.606c-.107-1.426-.962-1.996-3.137-1.996h-9.053c-2.566 0-3.565.606-3.565 2.138 0 .749.286 1.319.821 1.569.748.32 1.461.356 5.952.463l5.81.107c5.667.071 6.701.214 8.234.856 2.744 1.069 3.778 3.1 3.778 7.342 0 4.063-.784 5.81-3.315 6.951-1.854.855-4.206 1.14-9.267 1.14-14.935 0-15.505-.036-17.537-1.461-1.818-1.248-2.317-2.674-2.317-6.737v-.571h7.806zm29.368-17.287h28.194v6.024h-20.281v4.064h19.212v5.347h-19.212v4.17h20.709v6.166h-28.622v-25.771zm33.396 0h28.193v6.024h-20.281v4.064h19.212v5.347h-19.212v4.17h20.709v6.166h-28.621v-25.771zm41.308 19.177h13.972c1.925 0 2.851-.214 3.601-.927.854-.785 1.069-1.817 1.069-5.454 0-3.706-.215-4.633-1.141-5.453-.678-.534-1.996-.855-3.565-.855h-13.936v12.689zm-7.913-19.177h22.99c3.172 0 3.992.036 5.347.428 2.53.606 4.134 1.782 5.204 3.778.819 1.533 1.14 3.458 1.14 7.486 0 7.485-.214 8.946-1.461 10.8-1.497 2.281-4.42 3.279-9.41 3.279h-23.81v-25.771z" fill="#fff"/><path d="M95.12 299.021c0 2.662-.897 3.272-5.981 3.272h-.513c-5.678 0-6.287-.482-6.287-3.272v-.337h2.374v.257c0 1.395.48 1.555 3.752 1.555h.433c3.464 0 3.881-.257 3.881-1.411v-.113c0-1.218-.289-1.459-4.009-1.459-5.71 0-6.255-.529-6.255-3.079v-.128c0-2.599.914-3.176 5.613-3.176h.546c5.452 0 6.11.657 6.11 3.208v.288h-2.358v-.176c0-1.299-.4-1.556-3.4-1.556h-.416c-3.368 0-3.753.209-3.753 1.412v.111c0 1.059.208 1.284 4.154 1.284 5.404 0 6.11.481 6.11 3.191v.129zm10.683-2.085c2.966 0 3.222-.225 3.222-1.845v-.176c0-1.652-.256-1.86-3.222-1.86h-4.507v3.881h4.507zm-4.507 5.228h-2.374v-10.906h7.297c4.299 0 5.148.529 5.148 3.609v.273c0 3.079-.866 3.608-5.148 3.608h-4.923v3.416zm184.31-1.78c3.656-.016 3.993-.257 3.993-3.593v-.192c0-3.336-.337-3.56-3.993-3.56h-.305c-3.641 0-3.994.224-3.994 3.56v.192c0 3.336.353 3.577 3.994 3.593h.305zm-.353 1.909c-5.389 0-6.207-.723-6.207-5.422v-.32c0-4.699.818-5.421 6.207-5.421h.401c5.388 0 6.206.722 6.206 5.421v.32c0 4.699-.818 5.422-6.206 5.422h-.401zm22.566-.129h-12.334c-.015-.337-.015-1.396-.015-1.7 0-3.432.673-3.977 5.805-4.121 3.657-.113 4.074-.322 4.074-1.733v-.16c0-1.267-.45-1.556-3.56-1.556h-.289c-3.192 0-3.545.241-3.545 1.829v.224h-2.229v-.224c0-3.144.738-3.593 5.597-3.593h.289c4.908 0 6.03.546 6.03 3.047v.385c0 2.935-1.042 3.4-5.052 3.529-4.603.16-4.811.288-4.811 1.844v.481h10.04v1.748z" fill="#01C3A7"/><path d="M253.807 199.161a2.852 2.852 0 1 1-5.703-.001 2.852 2.852 0 0 1 5.703.001zm-112.27-3.921a2.14 2.14 0 1 1-4.279 0 2.14 2.14 0 0 1 4.279 0z" fill="#FFBE1A"/><path d="M235.221 204.945a4.276 4.276 0 0 1-6.024.527l5.498-6.551a4.277 4.277 0 0 1 .526 6.024z" fill="#4D1635"/><path d="M234.695 198.921l-5.497 6.551a4.276 4.276 0 1 1 5.497-6.551z" fill="#FFBE1A"/><path d="M231.01 201.411c-1.518 1.809-2.329 3.628-1.812 4.061.516.434 2.166-.681 3.684-2.49 1.518-1.809 2.329-3.627 1.813-4.061-.517-.433-2.167.681-3.685 2.49zm18.283 17.114a7.126 7.126 0 0 0 .879 10.04l9.161-10.919a7.127 7.127 0 0 0-10.04.879z" fill="#FFBE1A"/><path d="M259.333 217.647l-9.162 10.918a7.126 7.126 0 1 0 9.162-10.918z" fill="#4D1635"/><path d="M256.312 224.415c-2.529 3.015-5.278 4.873-6.14 4.15-.862-.723.491-3.753 3.021-6.768 2.53-3.015 5.279-4.873 6.14-4.15.862.723-.491 3.752-3.021 6.768z" fill="#4D1635"/><path d="M156.356 207.494a8.552 8.552 0 1 1 10.994-13.102l-10.994 13.102z" fill="#FFBE1A"/><path d="M156.355 207.494a8.553 8.553 0 0 0 10.995-13.102l-10.995 13.102z" fill="#4D1635"/><path d="M165.128 203.692c-3.037 3.618-6.964 5.32-8.773 3.802-1.809-1.518-.814-5.681 2.222-9.299 3.036-3.618 6.963-5.321 8.772-3.803 1.809 1.518.815 5.682-2.221 9.3z" fill="#4D1635"/><path d="M127.436 233.201c-4.824-4.048-5.454-11.24-1.406-16.064s11.24-5.453 16.064-1.405l-14.658 17.469z" fill="#FFBE1A"/><path d="M139.943 228.812c-4.048 4.823-9.648 6.789-12.507 4.389-2.86-2.4-1.898-8.256 2.15-13.08 4.049-4.824 9.648-6.789 12.508-4.389 2.86 2.4 1.898 8.256-2.151 13.08z" fill="#4D1635"/><path d="M127.436 233.201c4.823 4.048 12.015 3.418 16.064-1.406 4.047-4.823 3.418-12.015-1.406-16.063l-14.658 17.469z" fill="#4D1635"/><path d="M235.273 232.443l-9.756-12.975-15.667-9.132-14.851-1.922-14.85 1.922-15.668 9.132-9.755 12.975-4.278 13.052h89.102l-4.277-13.052z" fill="#270B1B"/><path d="M235.273 232.443l-9.756-12.975-15.667-9.132-14.851-1.922-14.85 1.922-15.668 9.132-9.755 12.975-4.278 13.052h89.102l-4.277-13.052z" stroke="#270B1B" stroke-width=".851" stroke-linecap="round" stroke-linejoin="round"/><path d="M197.803 215.963l12.119-1.441c.429-.051.492-.649.081-.788l-12.378-4.183a1.81 1.81 0 0 0-2.389 1.714v2.419c0 1.376 1.2 2.442 2.567 2.279z" fill="#E0A1C4" stroke="#270B1B" stroke-width=".475"/><path d="M194.999 211.265a2.046 2.046 0 0 1 2.702-1.939l12.379 4.183c.65.22.551 1.168-.13 1.249l-12.12 1.441a2.531 2.531 0 0 1-2.831-2.515v-2.419z" stroke="#270B1B" stroke-width=".713" stroke-linecap="round" stroke-linejoin="round"/><path d="M210.18 225.473a1.407 1.407 0 0 0 2.139-1.171v-.001l.16-7.035a2.236 2.236 0 0 0-2.5-2.272l-12.121 1.441c-.703.084-.904 1.01-.298 1.377l12.62 7.661z" fill="#CC639D" stroke="#270B1B" stroke-width=".475"/><path d="M197.831 216.199c-.928.11-1.193 1.332-.394 1.816l12.619 7.662a1.647 1.647 0 0 0 2.501-1.371l.16-7.034a2.474 2.474 0 0 0-2.767-2.514l-12.119 1.441z" stroke="#270B1B" stroke-width=".713" stroke-linecap="round" stroke-linejoin="round"/><path d="M195.236 227.573a2.13 2.13 0 0 0 2.523 2.095l11.887-2.221c.769-.145.955-1.161.287-1.567l-12.62-7.661a1.367 1.367 0 0 0-2.077 1.168v8.186z" fill="#CC639D" stroke="#270B1B" stroke-width=".475"/><path d="M197.436 218.015c-1.069-.649-2.437.121-2.437 1.372v8.187c0 1.483 1.345 2.6 2.803 2.328l11.888-2.222c.983-.183 1.221-1.484.366-2.003l-12.62-7.662z" stroke="#270B1B" stroke-width=".713" stroke-linecap="round" stroke-linejoin="round"/><path d="M204.86 243.077c.613.81 1.883.601 2.204-.363l4.303-12.927a1.442 1.442 0 0 0-1.633-1.873l-11.887 2.221a1.526 1.526 0 0 0-.939 2.421h.001l7.951 10.521z" fill="#4D1635" stroke="#270B1B" stroke-width=".475"/><path d="M197.803 229.901a1.764 1.764 0 0 0-1.084 2.798l7.951 10.521c.728.964 2.239.715 2.62-.431l4.303-12.927a1.68 1.68 0 0 0-1.902-2.182l-11.888 2.221z" stroke="#270B1B" stroke-width=".713" stroke-linecap="round" stroke-linejoin="round"/><path d="M209.24 245.257h13.859c.987 0 1.557-1.124.972-1.921l-10.083-13.74c-.593-.809-1.854-.611-2.171.341l-4.301 12.928a1.816 1.816 0 0 0 1.724 2.392z" fill="#4D1635" stroke="#270B1B" stroke-width=".475"/><path d="M207.29 242.789a2.054 2.054 0 0 0 1.95 2.705h13.858c1.183 0 1.864-1.344 1.165-2.298l-10.084-13.741c-.707-.964-2.209-.728-2.587.407l-4.302 12.927z" stroke="#270B1B" stroke-width=".713" stroke-linecap="round" stroke-linejoin="round"/><path d="M224.454 243.055c.474.646 1.495.377 1.588-.42l1.36-11.712a2.464 2.464 0 0 0-2.296-2.745l-9.783-.607c-.928-.058-1.502.994-.952 1.744l10.083 13.74z" fill="#4D1635" stroke="#270B1B" stroke-width=".475"/><path d="M214.179 229.455c-.669-.912.03-2.191 1.159-2.121l9.784.607a2.7 2.7 0 0 1 2.516 3.009l-1.36 11.712c-.117 1.011-1.414 1.355-2.016.534l-10.083-13.741z" stroke="#270B1B" stroke-width=".713" stroke-linecap="round" stroke-linejoin="round"/><path d="M225.137 227.704c.716.044 1.088-.839.555-1.319l-10.953-9.877c-.679-.613-1.763-.145-1.784.769l-.16 7.034a2.728 2.728 0 0 0 2.559 2.785l9.783.608z" fill="#CC639D" stroke="#270B1B" stroke-width=".475"/><path d="M212.557 224.306a2.969 2.969 0 0 0 2.782 3.028l9.783.607c.941.058 1.429-1.102.729-1.733l-10.952-9.877c-.83-.749-2.157-.177-2.182.94l-.16 7.035z" stroke="#270B1B" stroke-width=".713" stroke-linecap="round" stroke-linejoin="round"/><path d="M227.639 230.95c.102-.872 1.266-1.095 1.683-.322l6.664 12.357a1.7 1.7 0 0 1-1.498 2.509h-5.687a2.537 2.537 0 0 1-2.522-2.831l1.36-11.713z" fill="#4D1635"/><path d="M227.639 230.95c.102-.872 1.266-1.095 1.683-.322l6.664 12.357a1.7 1.7 0 0 1-1.498 2.509h-5.687a2.537 2.537 0 0 1-2.522-2.831l1.36-11.713z" stroke="#270B1B" stroke-width=".713" stroke-linecap="round" stroke-linejoin="round"/><path d="M229.322 230.628c-.381-.706.41-1.466 1.1-1.057l2.398 1.42a6.074 6.074 0 0 1 2.899 4.269l1.175 7.419c.086.539-.648.787-.908.306l-6.664-12.357z" fill="#4D1635"/><path d="M229.322 230.628c-.381-.706.41-1.466 1.1-1.057l2.398 1.42a6.074 6.074 0 0 1 2.899 4.269l1.175 7.418c.086.54-.648.788-.908.307l-6.664-12.357z" stroke="#270B1B" stroke-width=".713" stroke-linecap="round" stroke-linejoin="round"/><path d="M235.719 235.26c-.044-.278.355-.374.443-.107l3.044 9.291a.8.8 0 0 1-.761 1.05 1.295 1.295 0 0 1-1.278-1.091l-1.448-9.143z" fill="#4D1635"/><path d="M235.719 235.26c-.044-.278.355-.374.443-.107l3.044 9.291a.8.8 0 0 1-.761 1.05 1.295 1.295 0 0 1-1.278-1.091l-1.448-9.143z" stroke="#270B1B" stroke-width=".713" stroke-linecap="round" stroke-linejoin="round"/><path d="M233.56 230.164c.372.495-.208 1.142-.74.827l-2.398-1.42a7.154 7.154 0 0 1-3.231-4.196l-.896-3.164c-.161-.567.582-.935.936-.465l6.329 8.418z" fill="#CC639D"/><path d="M233.56 230.164c.372.495-.208 1.142-.74.827l-2.398-1.42a7.154 7.154 0 0 1-3.231-4.196l-.896-3.164c-.161-.567.582-.935.936-.465l6.329 8.418z" stroke="#270B1B" stroke-width=".713" stroke-linecap="round" stroke-linejoin="round"/><path d="M226.295 222.211a5.787 5.787 0 0 0-3.429-3.794l-7.433-2.946c-.533-.21-.959.476-.534.86l10.952 9.877c.612.552 1.564-.041 1.34-.833l-.896-3.164z" fill="#CC639D"/><path d="M226.295 222.211a5.787 5.787 0 0 0-3.429-3.794l-7.433-2.946c-.533-.21-.959.476-.534.86l10.952 9.877c.612.552 1.564-.041 1.34-.833l-.896-3.164z" stroke="#270B1B" stroke-width=".713" stroke-linecap="round" stroke-linejoin="round"/><path d="M222.867 218.417c.247.098.416-.251.187-.385l-11.032-6.43c-.5-.291-1.044.306-.706.777a8.574 8.574 0 0 0 3.803 2.968l7.748 3.07z" fill="#E0A1C4"/><path d="M222.867 218.417c.247.098.416-.251.187-.385l-11.032-6.43c-.5-.291-1.044.306-.706.777a8.574 8.574 0 0 0 3.803 2.968l7.748 3.07z" stroke="#270B1B" stroke-width=".713" stroke-linecap="round" stroke-linejoin="round"/><path d="M210.4 213.616c.744.252 1.374-.599.916-1.237a5.798 5.798 0 0 0-3.959-2.366l-9.53-1.233c-.337-.044-.448.437-.126.546l12.699 4.29z" fill="#E0A1C4"/><path d="M210.4 213.616c.744.252 1.374-.599.916-1.237a5.798 5.798 0 0 0-3.959-2.366l-9.53-1.233c-.337-.044-.448.437-.126.546l12.699 4.29z" stroke="#270B1B" stroke-width=".713" stroke-linecap="round" stroke-linejoin="round"/><path d="M194.999 211.265a2.046 2.046 0 0 0-2.702-1.939l-12.378 4.183c-.651.22-.552 1.168.129 1.249l12.12 1.441a2.53 2.53 0 0 0 2.831-2.515v-2.419z" fill="#E0A1C4"/><path d="M194.999 211.265a2.046 2.046 0 0 0-2.702-1.939l-12.378 4.183c-.651.22-.552 1.168.129 1.249l12.12 1.441a2.53 2.53 0 0 0 2.831-2.515v-2.419z" stroke="#270B1B" stroke-width=".713" stroke-linecap="round" stroke-linejoin="round"/><path d="M192.168 216.199c.928.11 1.193 1.332.394 1.816l-12.619 7.662a1.646 1.646 0 0 1-2.501-1.371l-.16-7.034a2.474 2.474 0 0 1 2.767-2.514l12.119 1.441z" fill="#E0A1C4"/><path d="M192.168 216.199c.928.11 1.193 1.332.394 1.816l-12.619 7.662a1.646 1.646 0 0 1-2.501-1.371l-.16-7.034a2.474 2.474 0 0 1 2.767-2.514l12.119 1.441z" stroke="#270B1B" stroke-width=".713" stroke-linecap="round" stroke-linejoin="round"/><path d="M192.562 218.015a1.604 1.604 0 0 1 2.437 1.372v8.187c0 1.483-1.344 2.6-2.802 2.328l-11.888-2.222c-.984-.183-1.221-1.484-.366-2.003l12.619-7.662z" fill="#CC639D"/><path d="M192.562 218.015a1.604 1.604 0 0 1 2.437 1.372v8.187c0 1.483-1.344 2.6-2.802 2.328l-11.888-2.222c-.984-.183-1.221-1.484-.366-2.003l12.619-7.662z" stroke="#270B1B" stroke-width=".713" stroke-linecap="round" stroke-linejoin="round"/><path d="M192.197 229.901a1.764 1.764 0 0 1 1.083 2.798l-7.951 10.521c-.728.964-2.238.715-2.62-.431l-4.303-12.927a1.68 1.68 0 0 1 1.903-2.182l11.888 2.221z" fill="#CC639D"/><path d="M192.197 229.901a1.764 1.764 0 0 1 1.083 2.798l-7.951 10.521c-.728.964-2.238.715-2.62-.431l-4.303-12.927a1.68 1.68 0 0 1 1.903-2.182l11.888 2.221z" stroke="#270B1B" stroke-width=".713" stroke-linecap="round" stroke-linejoin="round"/><path d="M182.708 242.789a2.054 2.054 0 0 1-1.95 2.705H166.9c-1.183 0-1.864-1.344-1.165-2.298l10.083-13.741c.708-.964 2.21-.728 2.588.407l4.302 12.927z" fill="#CC639D"/><path d="M182.708 242.789a2.054 2.054 0 0 1-1.95 2.705H166.9c-1.183 0-1.864-1.344-1.165-2.298l10.083-13.741c.708-.964 2.21-.728 2.588.407l4.302 12.927z" stroke="#270B1B" stroke-width=".713" stroke-linecap="round" stroke-linejoin="round"/><path d="M175.819 229.455c.67-.912-.029-2.191-1.158-2.121l-9.784.607a2.701 2.701 0 0 0-2.517 3.009l1.36 11.712c.118 1.011 1.415 1.355 2.016.534l10.083-13.741z" fill="#E0A1C4"/><path d="M175.819 229.455c.67-.912-.029-2.191-1.158-2.121l-9.784.607a2.701 2.701 0 0 0-2.517 3.009l1.36 11.712c.118 1.011 1.415 1.355 2.016.534l10.083-13.741z" stroke="#270B1B" stroke-width=".713" stroke-linecap="round" stroke-linejoin="round"/><path d="M177.441 224.306a2.967 2.967 0 0 1-2.781 3.028l-9.784.607c-.941.058-1.428-1.102-.729-1.733l10.953-9.877c.83-.749 2.156-.177 2.181.94l.16 7.035z" fill="#E0A1C4"/><path d="M177.441 224.306a2.967 2.967 0 0 1-2.781 3.028l-9.784.607c-.941.058-1.428-1.102-.729-1.733l10.953-9.877c.83-.749 2.156-.177 2.181.94l.16 7.035z" stroke="#270B1B" stroke-width=".713" stroke-linecap="round" stroke-linejoin="round"/><path d="M162.359 230.95c-.101-.872-1.265-1.095-1.682-.322l-6.665 12.357a1.7 1.7 0 0 0 1.498 2.509h5.688a2.538 2.538 0 0 0 2.522-2.831l-1.361-11.713z" fill="#E0A1C4"/><path d="M162.359 230.95c-.101-.872-1.266-1.095-1.682-.322l-6.665 12.357a1.7 1.7 0 0 0 1.498 2.509h5.688a2.538 2.538 0 0 0 2.522-2.831l-1.361-11.713z" stroke="#270B1B" stroke-width=".713" stroke-linecap="round" stroke-linejoin="round"/><path d="M160.677 230.628c.381-.706-.41-1.466-1.1-1.057l-2.398 1.42a6.075 6.075 0 0 0-2.9 4.269l-1.175 7.419c-.085.539.649.787.908.306l6.665-12.357z" fill="#E0A1C4"/><path d="M160.677 230.628c.381-.706-.41-1.466-1.1-1.057l-2.398 1.42a6.075 6.075 0 0 0-2.9 4.269l-1.175 7.418c-.085.54.649.788.908.307l6.665-12.357z" stroke="#270B1B" stroke-width=".713" stroke-linecap="round" stroke-linejoin="round"/><path d="M154.28 235.26c.044-.278-.355-.374-.443-.107l-3.045 9.291a.8.8 0 0 0 .762 1.05c.636 0 1.178-.463 1.278-1.091l1.448-9.143z" fill="#E0A1C4"/><path d="M154.28 235.26c.044-.278-.355-.374-.443-.107l-3.045 9.291a.8.8 0 0 0 .762 1.05c.636 0 1.178-.463 1.278-1.091l1.448-9.143z" stroke="#270B1B" stroke-width=".713" stroke-linecap="round" stroke-linejoin="round"/><path d="M156.439 230.164c-.372.495.208 1.142.74.827l2.398-1.42a7.154 7.154 0 0 0 3.231-4.196l.896-3.164c.161-.567-.582-.935-.936-.465l-6.329 8.418z" fill="#E0A1C4"/><path d="M156.439 230.164c-.372.495.208 1.142.74.827l2.398-1.42a7.154 7.154 0 0 0 3.231-4.196l.896-3.164c.161-.567-.582-.935-.936-.465l-6.329 8.418z" stroke="#270B1B" stroke-width=".713" stroke-linecap="round" stroke-linejoin="round"/><path d="M163.704 222.211a5.788 5.788 0 0 1 3.428-3.794l7.434-2.946c.533-.21.959.476.534.86l-10.952 9.877c-.612.552-1.564-.041-1.34-.833l.896-3.164z" fill="#E0A1C4"/><path d="M163.704 222.211a5.788 5.788 0 0 1 3.428-3.794l7.434-2.946c.533-.21.959.476.534.86l-10.952 9.877c-.612.552-1.564-.041-1.34-.833l.896-3.164z" stroke="#270B1B" stroke-width=".713" stroke-linecap="round" stroke-linejoin="round"/><path d="M167.133 218.417c-.248.098-.417-.251-.188-.385l11.032-6.43c.5-.291 1.044.306.707.777a8.582 8.582 0 0 1-3.804 2.968l-7.747 3.07z" fill="#E0A1C4"/><path d="M167.133 218.417c-.248.098-.417-.251-.188-.385l11.032-6.43c.5-.291 1.044.306.707.777a8.582 8.582 0 0 1-3.804 2.968l-7.747 3.07z" stroke="#270B1B" stroke-width=".713" stroke-linecap="round" stroke-linejoin="round"/><path d="M179.599 213.616c-.744.252-1.374-.599-.916-1.237a5.798 5.798 0 0 1 3.959-2.366l9.529-1.233c.338-.044.449.437.127.546l-12.699 4.29z" fill="#E0A1C4"/><path d="M179.599 213.616c-.744.252-1.374-.599-.916-1.237a5.798 5.798 0 0 1 3.959-2.366l9.529-1.233c.338-.044.449.437.127.546l-12.699 4.29z" stroke="#270B1B" stroke-width=".713" stroke-linecap="round" stroke-linejoin="round"/><path d="M193.28 232.699a2.155 2.155 0 0 1 3.439 0l7.951 10.521c.707.935.04 2.275-1.132 2.275h-17.077c-1.172 0-1.839-1.34-1.132-2.275l7.951-10.521z" fill="#4D1635"/><path d="M193.28 232.699a2.155 2.155 0 0 1 3.439 0l7.951 10.521c.707.935.04 2.275-1.132 2.275h-17.077c-1.172 0-1.839-1.34-1.132-2.275l7.951-10.521z" stroke="#270B1B" stroke-width=".713" stroke-linecap="round" stroke-linejoin="round"/><path d="M189.162 182.853c0 6.447 5.838 11.674 5.838 11.674s5.837-5.227 5.837-11.674c0-6.448-5.837-11.674-5.837-11.674s-5.838 5.226-5.838 11.674z" fill="#fff"/><path d="M194.998 178.459c3.224 0 5.837 1.968 5.837 4.394 0-6.447-5.837-11.674-5.837-11.674s-5.837 5.227-5.837 11.674c0-2.426 2.613-4.394 5.837-4.394z" fill="#CCC"/><path d="M181.865 128.128c0 14.508 13.135 26.268 13.135 26.268s13.133-11.76 13.133-26.268c0-14.507-13.133-26.267-13.133-26.267s-13.135 11.76-13.135 26.267z" fill="#fff"/><path d="M194.998 118.243c7.254 0 13.134 4.426 13.134 9.885 0-14.507-13.134-26.268-13.134-26.268s-13.134 11.761-13.134 26.268c0-5.459 5.88-9.885 13.134-9.885z" fill="#CCC"/><path d="M180.766 161.929c3.308 9.088-2.239 19.451-2.239 19.451s-10.909-4.373-14.217-13.461c-3.308-9.089 2.239-19.451 2.239-19.451s10.909 4.373 14.217 13.461z" fill="#fff"/><path d="M172.538 158.53c3.595 0 6.71 1.409 8.251 3.468-.008-.023-.014-.047-.023-.069-3.307-9.089-14.217-13.461-14.217-13.461s-4.034 7.544-3.164 15.404c.728-3.031 4.548-5.342 9.153-5.342z" fill="#CCC"/><path d="M225.687 167.918c-3.308 9.089-14.217 13.461-14.217 13.461s-5.547-10.362-2.239-19.45c3.308-9.089 14.218-13.461 14.218-13.461s5.546 10.362 2.238 19.45z" fill="#fff"/><path d="M217.459 158.53c4.605 0 8.425 2.311 9.153 5.342.87-7.86-3.164-15.404-3.164-15.404s-10.91 4.372-14.217 13.461c-.009.022-.015.046-.023.069 1.541-2.059 4.656-3.468 8.251-3.468z" fill="#CCC"/><path d="M132.081 302.164h-2.37v-10.89h10.858v1.874h-8.488v2.978h8.119v1.778h-8.119v4.26zm19.158-5.333c.555 0 1.009-.027 1.361-.08.353-.053.625-.144.817-.272a.9.9 0 0 0 .401-.513c.074-.224.112-.507.112-.848v-.241c0-.395-.032-.71-.096-.945a.904.904 0 0 0-.401-.544c-.203-.128-.491-.214-.865-.256a12.992 12.992 0 0 0-1.457-.064h-4.964v3.763h5.092zm5.077 5.333h-2.37v-1.041c0-.545-.038-.982-.112-1.313-.064-.342-.214-.598-.449-.769-.235-.181-.576-.299-1.025-.352-.448-.064-1.051-.096-1.809-.096h-4.404v3.571h-2.37v-10.89h8.231c.865 0 1.575.048 2.13.144.566.096 1.009.267 1.329.513.331.245.555.576.673.993.128.405.192.928.192 1.569v.4c0 .854-.16 1.49-.481 1.906-.309.406-.8.678-1.473.817v.064c.384.064.699.149.945.256.256.096.454.246.592.448.15.193.251.449.305.769.064.32.096.726.096 1.217v1.794zm10.549.128a36.94 36.94 0 0 1-2.61-.08c-.726-.043-1.346-.134-1.858-.272-.502-.139-.913-.331-1.233-.577a2.507 2.507 0 0 1-.753-.961c-.171-.405-.288-.897-.352-1.473a18.901 18.901 0 0 1-.096-2.05v-.32c0-.79.032-1.473.096-2.05.064-.577.181-1.062.352-1.457a2.48 2.48 0 0 1 .753-.977c.32-.256.731-.449 1.233-.577.512-.138 1.132-.229 1.858-.272a36.94 36.94 0 0 1 2.61-.08h.48c1.004 0 1.869.027 2.595.08.736.043 1.356.134 1.857.272.513.128.929.321 1.249.577.321.245.566.571.737.977.182.395.304.88.368 1.457.065.577.097 1.26.097 2.05v.32c0 .79-.032 1.473-.097 2.05-.064.576-.186 1.068-.368 1.473a2.492 2.492 0 0 1-.737.977c-.32.246-.736.438-1.249.577-.501.128-1.121.213-1.857.256-.726.053-1.591.08-2.595.08h-.48zm.4-1.874c1.057 0 1.89-.032 2.499-.096.608-.064 1.067-.219 1.377-.464.309-.246.502-.609.576-1.089.086-.481.128-1.137.128-1.97v-.176c0-.833-.042-1.489-.128-1.97-.074-.491-.267-.859-.576-1.105-.31-.245-.769-.4-1.377-.464-.609-.064-1.442-.096-2.499-.096h-.32c-1.057 0-1.89.032-2.498.096-.609.064-1.068.219-1.377.464-.31.246-.508.614-.593 1.105-.075.481-.112 1.137-.112 1.97v.176c0 .833.037 1.489.112 1.97.085.48.283.843.593 1.089.309.245.768.4 1.377.464.608.064 1.441.096 2.498.096h.32zm24.627 1.746h-3.588l-7.863-8.856h-.08v8.856h-2.354v-10.89h3.651l7.799 8.856h.08v-8.856h2.355v10.89zm10.402 0h-2.386v-9.016h-5.013v-1.874h12.411v1.874h-5.012v9.016zm10.406 0h-2.386v-10.89h2.386v10.89zm15.402 0h-11.37v-10.89h11.242v1.826h-8.872v2.626h8.44v1.778h-8.44v2.786h9v1.874zm10.815-5.333a9.47 9.47 0 0 0 1.362-.08c.352-.053.624-.144.816-.272a.9.9 0 0 0 .401-.513c.075-.224.112-.507.112-.848v-.241c0-.395-.032-.71-.096-.945a.904.904 0 0 0-.401-.544c-.202-.128-.491-.214-.864-.256a13.012 13.012 0 0 0-1.458-.064h-4.964v3.763h5.092zm5.077 5.333h-2.37v-1.041c0-.545-.037-.982-.112-1.313-.064-.342-.214-.598-.449-.769-.234-.181-.576-.299-1.025-.352-.448-.064-1.051-.096-1.809-.096h-4.404v3.571h-2.37v-10.89h8.231c.865 0 1.575.048 2.13.144.566.096 1.009.267 1.329.513.331.245.555.576.673.993.128.405.192.928.192 1.569v.4c0 .854-.16 1.49-.48 1.906-.31.406-.801.678-1.474.817v.064c.385.064.7.149.945.256.256.096.454.246.593.448.149.193.251.449.304.769.064.32.096.726.096 1.217v1.794zm16.539-3.139c0 .662-.075 1.206-.225 1.633-.138.428-.427.764-.864 1.009-.428.235-1.031.401-1.81.497-.779.085-1.804.128-3.075.128h-.512c-1.42 0-2.547-.043-3.379-.128-.822-.075-1.452-.23-1.89-.465-.427-.234-.705-.565-.833-.992-.117-.428-.176-.988-.176-1.682v-.336h2.37v.256c0 .352.043.63.128.833.086.203.257.357.513.464.267.107.646.176 1.137.208s1.148.048 1.97.048h.432c.865 0 1.553-.016 2.066-.048.512-.042.902-.117 1.169-.224s.438-.251.512-.432c.086-.182.128-.417.128-.705v-.112c0-.299-.037-.545-.112-.737-.064-.192-.229-.341-.496-.448-.267-.107-.667-.176-1.201-.208a28.944 28.944 0 0 0-2.194-.064c-.95 0-1.767-.016-2.45-.048a13.19 13.19 0 0 1-1.714-.177c-.459-.096-.827-.213-1.105-.352a1.764 1.764 0 0 1-.624-.56 2.01 2.01 0 0 1-.289-.817 8.716 8.716 0 0 1-.064-1.121v-.128c0-.651.07-1.18.208-1.586.15-.416.428-.742.833-.976.406-.235.972-.395 1.698-.481.736-.085 1.692-.128 2.866-.128h.545c.907 0 1.687.021 2.338.064.662.043 1.217.112 1.665.208.449.086.812.208 1.089.369.278.16.491.363.641.608.149.235.245.513.288.833.054.32.08.694.08 1.121v.288h-2.354v-.176c0-.32-.037-.582-.112-.785-.075-.203-.23-.357-.464-.464-.235-.118-.577-.198-1.025-.24a19.745 19.745 0 0 0-1.794-.064h-.416c-.844 0-1.516.016-2.018.048-.491.032-.865.101-1.121.208-.256.096-.422.24-.497.432-.074.182-.112.422-.112.721v.112c0 .267.032.486.096.657.065.16.23.288.497.384.277.096.694.16 1.249.192.555.032 1.324.048 2.306.048.897 0 1.671.016 2.322.048a12.3 12.3 0 0 1 1.65.176c.459.086.827.203 1.105.353.277.149.491.341.64.576.15.235.251.523.304.865.054.331.081.721.081 1.169v.128z" fill="#FFBE1A"/></g><defs><linearGradient id="paint0_linear_383_534" x1="195" x2="195" y2="390" gradientUnits="userSpaceOnUse"><stop stop-color="#fff" stop-opacity=".13"/><stop offset="1" stop-color="#fff" stop-opacity="0"/></linearGradient><clipPath id="clip0_383_534"><path fill="#fff" d="M0 0H390V390H0z"/></clipPath></defs></svg>