<svg width="390" height="390" fill="none" xmlns="http://www.w3.org/2000/svg"><g clip-path="url(#clip0_383_515)"><path fill="#003641" d="M0 0H390V390H0z"/><path fill="url(#paint0_linear_383_515)" d="M0 0H390V390H0z"/><path d="M195 60.035c-4.242 0-8.433 1.08-12.12 3.124a24.923 24.923 0 0 0-9.486 9.35L46.359 292.542a24.932 24.932 0 0 0-3.355 12.891 25.065 25.065 0 0 0 3.355 12.058 25.06 25.06 0 0 0 8.765 8.934 24.926 24.926 0 0 0 12.84 3.54h254.071c4.547 0 8.987-1.224 12.841-3.54a25.065 25.065 0 0 0 12.12-20.992 24.916 24.916 0 0 0-3.355-12.891L216.606 72.51a24.923 24.923 0 0 0-9.486-9.351A25.061 25.061 0 0 0 195 60.035z" fill="#000"/><path d="M195 67.164c-6.443 0-12.211 3.331-15.433 8.91L52.532 296.105c-3.221 5.58-3.221 12.241 0 17.821 3.221 5.579 8.99 8.91 15.433 8.91h254.07c6.443 0 12.212-3.331 15.433-8.91 3.221-5.58 3.221-12.241 0-17.821L210.433 76.074c-3.221-5.579-8.99-8.91-15.433-8.91z" fill="#fff"/><path d="M195 70.728c-5.154 0-9.77 2.664-12.346 7.128L55.618 297.887c-2.577 4.463-2.577 9.793 0 14.257 2.578 4.463 7.193 7.128 12.347 7.128h254.07c5.154 0 9.769-2.665 12.347-7.128 2.577-4.464 2.577-9.794 0-14.257L207.346 77.856c-2.576-4.464-7.192-7.128-12.346-7.128z" fill="#FF8133"/><path d="M195.001 74.292c3.6 0 7.201 1.782 9.259 5.346l127.035 220.031c4.116 7.128-1.028 16.039-9.26 16.039H67.965c-8.23 0-13.375-8.911-9.26-16.039L185.741 79.638c2.057-3.564 5.658-5.346 9.26-5.346z" fill="#003641"/><path d="M195.001 74.292c3.6 0 7.201 1.782 9.259 5.346l127.035 220.031c4.116 7.128-1.028 16.039-9.26 16.039H67.965c-8.23 0-13.375-8.911-9.26-16.039L185.741 79.638c2.057-3.564 5.658-5.346 9.26-5.346z" fill="#000" fill-opacity=".5"/><path d="M133.501 273.009v.464c0 .998.392 1.817 1.105 2.138.463.25.998.357 2.352.357h9.945c2.281 0 3.172-.642 3.172-2.21 0-1.925-.926-2.175-6.558-2.246l-6.238-.107c-5.952-.107-7.984-.392-9.66-1.604-1.425-1.105-1.995-2.887-1.995-6.344 0-3.529.57-5.168 2.281-6.345 2.032-1.425 3.6-1.675 10.8-1.675 11.156 0 12.083.035 14.079.606 1.283.357 2.602 1.212 3.208 2.103.713.997 1.069 2.424 1.069 4.634v1.033h-7.77v-.605c-.107-1.427-.963-1.997-3.137-1.997H137.1c-2.565 0-3.564.606-3.564 2.139 0 .749.286 1.318.821 1.568.748.321 1.461.357 5.952.463l5.81.108c5.667.07 6.701.213 8.233.855 2.745 1.07 3.778 3.101 3.778 7.343 0 4.063-.783 5.809-3.314 6.95-1.854.855-4.207 1.14-9.267 1.14-14.935 0-15.505-.035-17.537-1.461-1.818-1.248-2.317-2.673-2.317-6.736v-.571h7.806zm29.367-17.287h28.194v6.024h-20.281v4.063h19.212v5.347h-19.212v4.17h20.709v6.166h-28.622v-25.77zm33.397 0h28.193v6.024h-20.281v4.063h19.212v5.347h-19.212v4.17h20.709v6.166h-28.621v-25.77zm41.308 19.176h13.972c1.924 0 2.851-.214 3.6-.927.855-.784 1.069-1.817 1.069-5.453 0-3.707-.214-4.634-1.14-5.453-.678-.535-1.996-.856-3.565-.856h-13.936v12.689zm-7.913-19.176h22.99c3.172 0 3.992.036 5.347.428 2.53.606 4.134 1.782 5.203 3.778.82 1.533 1.141 3.457 1.141 7.485 0 7.485-.214 8.946-1.462 10.8-1.496 2.281-4.419 3.279-9.41 3.279H229.66v-25.77z" fill="#fff"/><path d="M191.435 223.753l2.621-20.968c.139-1.11 1.747-1.11 1.886 0l2.621 20.968a3.592 3.592 0 1 1-7.128 0z" fill="#FFBE1A"/><path d="M192.269 226.045l-11.471-17.748c-.607-.939.625-1.974 1.445-1.212l15.486 14.377a3.592 3.592 0 1 1-5.46 4.583z" fill="#FFBE1A"/><path d="M194.38 227.264l-20.194-6.223c-1.07-.329-.79-1.913.327-1.857l21.104 1.06a3.592 3.592 0 1 1-1.237 7.02z" fill="#FFBE1A"/><path d="M194.379 220.244l21.105-1.06c1.118-.057 1.397 1.528.328 1.857l-20.195 6.222a3.592 3.592 0 1 1-1.238-7.019z" fill="#FFBE1A"/><path d="M192.269 221.463l15.486-14.378c.819-.761 2.052.272 1.444 1.212l-11.47 17.748a3.593 3.593 0 0 1-6.033-3.9 3.76 3.76 0 0 1 .573-.682z" fill="#FFBE1A"/><path d="M192.319 224.729l-1.891-11.481c-.129-.78.916-1.16 1.319-.48l5.93 10.011a2.902 2.902 0 1 1-5.358 1.95z" fill="#FFBE1A"/><path d="M193.574 226.223l-8.829-7.579c-.6-.515-.043-1.479.702-1.216l10.978 3.856a2.901 2.901 0 1 1-2.851 4.939z" fill="#FFBE1A"/><path d="M193.574 221.284l10.978-3.856c.745-.262 1.301.701.701 1.216l-8.828 7.579a2.901 2.901 0 1 1-2.851-4.939z" fill="#FFBE1A"/><path d="M192.319 222.778l5.931-10.01c.403-.68 1.448-.299 1.32.48l-1.892 11.481a2.901 2.901 0 1 1-5.359-1.951z" fill="#FFBE1A"/><path d="M195.494 226.561l-11.634-.13c-.791-.009-.984-1.105-.244-1.384l10.888-4.102a2.902 2.902 0 1 1 .99 5.616z" fill="#FFBE1A"/><path d="M195.494 220.945l10.889 4.103c.739.278.546 1.374-.245 1.383l-11.634.13a2.9 2.9 0 0 1-2.933-2.868 2.9 2.9 0 0 1 3.923-2.748z" fill="#FFBE1A"/><path d="M203.553 223.753a8.554 8.554 0 0 1-8.554 8.554 8.554 8.554 0 1 1 0-17.107 8.553 8.553 0 0 1 8.554 8.553z" fill="#FFBE1A"/><path d="M223.481 246.92c-.638-15.182-13.143-27.296-28.482-27.296-15.339 0-27.844 12.114-28.482 27.296 5.342-4.571 16.091-7.694 28.482-7.694 12.391 0 23.139 3.123 28.482 7.694z" fill="#00B5D9"/><path d="M225.315 202.671c-.578-.192-.578-1.009 0-1.202l.67-.223a3.812 3.812 0 0 0 2.405-2.405l.223-.67c.193-.578 1.01-.578 1.203 0l.223.67a3.812 3.812 0 0 0 2.404 2.405l.671.223c.577.193.577 1.01 0 1.202l-.671.224a3.809 3.809 0 0 0-2.404 2.404l-.223.67c-.193.578-1.01.578-1.203 0l-.223-.67a3.808 3.808 0 0 0-2.405-2.404l-.67-.224zm26.175-3.63a.564.564 0 0 1 0-1.07 3.387 3.387 0 0 0 2.138-2.138c.143-.427.927-.427 1.069 0a3.389 3.389 0 0 0 2.139 2.138c.427.143.427.927 0 1.07a3.389 3.389 0 0 0-2.139 2.138c-.142.427-.926.427-1.069 0a3.387 3.387 0 0 0-2.138-2.138zm-11.205 26.084c-.578-.192-.578-1.009 0-1.202l1.472-.491a3.809 3.809 0 0 0 2.404-2.404l.491-1.472c.193-.578 1.01-.578 1.202 0l.491 1.472a3.812 3.812 0 0 0 2.405 2.404l1.472.491c.578.193.578 1.01 0 1.202l-1.472.491a3.812 3.812 0 0 0-2.405 2.405l-.491 1.471c-.192.578-1.009.578-1.202 0l-.491-1.471a3.808 3.808 0 0 0-2.404-2.405l-1.472-.491zm-75.602-22.454c.578-.192.578-1.009 0-1.202l-.67-.223a3.814 3.814 0 0 1-2.405-2.405l-.223-.67c-.193-.578-1.01-.578-1.202 0l-.224.67a3.812 3.812 0 0 1-2.404 2.405l-.67.223c-.578.193-.578 1.01 0 1.202l.67.224a3.809 3.809 0 0 1 2.404 2.404l.224.67c.192.578 1.009.578 1.202 0l.223-.67a3.81 3.81 0 0 1 2.405-2.404l.67-.224zm-26.175-3.63c.513-.171.513-.899 0-1.07a3.389 3.389 0 0 1-2.139-2.138c-.142-.427-.926-.427-1.069 0a3.387 3.387 0 0 1-2.138 2.138c-.428.143-.428.927 0 1.07a3.387 3.387 0 0 1 2.138 2.138c.143.427.927.427 1.069 0a3.389 3.389 0 0 1 2.139-2.138zm11.205 26.084c.578-.192.578-1.009 0-1.202l-1.472-.491a3.809 3.809 0 0 1-2.404-2.404l-.491-1.472c-.193-.578-1.01-.578-1.203 0l-.49 1.472a3.812 3.812 0 0 1-2.405 2.404l-1.472.491c-.578.193-.578 1.01 0 1.202l1.472.491a3.812 3.812 0 0 1 2.405 2.405l.49 1.471c.193.578 1.01.578 1.203 0l.491-1.471a3.808 3.808 0 0 1 2.404-2.405l1.472-.491zm-6.053 71.81c2.967 0 3.223-.224 3.223-1.844v-.176c0-1.652-.256-1.861-3.223-1.861h-4.507v3.881h4.507zm-4.507 5.229h-2.374v-10.906h7.298c4.298 0 5.148.529 5.148 3.608v.274c0 3.079-.866 3.607-5.148 3.607h-4.924v3.417zm13.521 0h2.389v-10.906h-2.389v10.906zm13.472-1.748c4.234 0 4.586-.305 4.586-3.625v-.176c0-3.352-.352-3.641-4.586-3.641h-.321c-4.218 0-4.587.289-4.587 3.641v.176c0 3.32.369 3.625 4.587 3.625h.321zm-.401 1.876c-6.014 0-6.913-.673-6.913-5.42v-.321c0-4.764.899-5.421 6.913-5.421h.481c6.014 0 6.912.657 6.912 5.421v.321c0 4.762-.898 5.42-6.912 5.42h-.481zm25.068-.128h-3.593l-7.875-8.869h-.08v8.869h-2.358v-10.906h3.657l7.811 8.869h.08v-8.869h2.358v10.906zm15.429 0h-11.388v-10.906h11.259v1.828h-8.885v2.631h8.452v1.78h-8.452v2.791h9.014v1.876zm14.738 0h-11.386v-10.906h11.258v1.828h-8.885v2.631h8.452v1.78h-8.452v2.791h9.013v1.876zm10.827-5.341c2.245 0 2.694-.368 2.694-1.715v-.241c0-1.572-.385-1.813-2.823-1.813h-4.971v3.769h5.1zm5.084 5.341h-2.374v-1.042c0-2.198-.353-2.534-3.4-2.534h-4.41v3.576h-2.374v-10.906h8.244c3.479 0 4.33.674 4.33 3.224v.401c0 1.7-.626 2.454-1.957 2.726v.065c1.556.24 1.941.705 1.941 2.694v1.796zm16.568-3.143c0 2.662-.899 3.272-5.982 3.272h-.514c-5.677 0-6.286-.482-6.286-3.272v-.337h2.373v.257c0 1.395.481 1.555 3.753 1.555h.433c3.464 0 3.881-.257 3.881-1.411v-.113c0-1.218-.289-1.459-4.009-1.459-5.71 0-6.255-.529-6.255-3.079v-.128c0-2.599.914-3.176 5.613-3.176h.546c5.452 0 6.11.657 6.11 3.208v.288h-2.358v-.176c0-1.299-.401-1.556-3.4-1.556h-.417c-3.368 0-3.753.209-3.753 1.412v.111c0 1.059.209 1.284 4.154 1.284 5.405 0 6.111.481 6.111 3.191v.129z" fill="#FFBE1A"/><path d="M95.12 299.021c0 2.662-.897 3.272-5.981 3.272h-.513c-5.678 0-6.287-.482-6.287-3.272v-.337h2.374v.257c0 1.395.48 1.555 3.752 1.555h.433c3.464 0 3.881-.257 3.881-1.411v-.113c0-1.218-.289-1.459-4.009-1.459-5.71 0-6.255-.529-6.255-3.079v-.128c0-2.599.914-3.176 5.613-3.176h.546c5.452 0 6.11.657 6.11 3.208v.288h-2.358v-.176c0-1.299-.4-1.556-3.4-1.556h-.416c-3.368 0-3.753.209-3.753 1.412v.111c0 1.059.208 1.284 4.154 1.284 5.404 0 6.11.481 6.11 3.191v.129zm10.683-2.086c2.966 0 3.222-.224 3.222-1.844v-.176c0-1.652-.256-1.861-3.222-1.861h-4.507v3.881h4.507zm-4.507 5.229h-2.374v-10.906h7.297c4.299 0 5.148.529 5.148 3.608v.274c0 3.079-.866 3.607-5.148 3.607h-4.923v3.417zm186.612-1.78c3.656-.016 3.993-.257 3.993-3.593v-.192c0-3.336-.337-3.56-3.993-3.56h-.306c-3.64 0-3.993.224-3.993 3.56v.192c0 3.336.353 3.577 3.993 3.593h.306zm-.353 1.909c-5.389 0-6.207-.722-6.207-5.421v-.321c0-4.699.818-5.421 6.207-5.421h.401c5.388 0 6.206.722 6.206 5.421v.321c0 4.699-.818 5.421-6.206 5.421h-.401zm16.871-.129h-2.277v-8.901h-.048l-3.897 2.838-1.123-1.619 4.459-3.224h2.886v10.906z" fill="#FF8133"/><path d="M225.315 202.671c-.578-.192-.578-1.009 0-1.202l.67-.223a3.812 3.812 0 0 0 2.405-2.405l.223-.67c.193-.578 1.01-.578 1.203 0l.223.67a3.812 3.812 0 0 0 2.404 2.405l.671.223c.577.193.577 1.01 0 1.202l-.671.224a3.809 3.809 0 0 0-2.404 2.404l-.223.67c-.193.578-1.01.578-1.203 0l-.223-.67a3.808 3.808 0 0 0-2.405-2.404l-.67-.224zm26.175-3.63a.564.564 0 0 1 0-1.07 3.387 3.387 0 0 0 2.138-2.138c.143-.427.927-.427 1.069 0a3.389 3.389 0 0 0 2.139 2.138c.427.143.427.927 0 1.07a3.389 3.389 0 0 0-2.139 2.138c-.142.427-.926.427-1.069 0a3.387 3.387 0 0 0-2.138-2.138zm-11.205 26.084c-.578-.192-.578-1.009 0-1.202l1.472-.491a3.809 3.809 0 0 0 2.404-2.404l.491-1.472c.193-.578 1.01-.578 1.202 0l.491 1.472a3.812 3.812 0 0 0 2.405 2.404l1.472.491c.578.193.578 1.01 0 1.202l-1.472.491a3.812 3.812 0 0 0-2.405 2.405l-.491 1.471c-.192.578-1.009.578-1.202 0l-.491-1.471a3.808 3.808 0 0 0-2.404-2.405l-1.472-.491zm-75.602-22.454c.578-.192.578-1.009 0-1.202l-.67-.223a3.814 3.814 0 0 1-2.405-2.405l-.223-.67c-.193-.578-1.01-.578-1.202 0l-.224.67a3.812 3.812 0 0 1-2.404 2.405l-.67.223c-.578.193-.578 1.01 0 1.202l.67.224a3.809 3.809 0 0 1 2.404 2.404l.224.67c.192.578 1.009.578 1.202 0l.223-.67a3.81 3.81 0 0 1 2.405-2.404l.67-.224zm-26.175-3.63c.513-.171.513-.899 0-1.07a3.389 3.389 0 0 1-2.139-2.138c-.142-.427-.926-.427-1.069 0a3.387 3.387 0 0 1-2.138 2.138c-.428.143-.428.927 0 1.07a3.387 3.387 0 0 1 2.138 2.138c.143.427.927.427 1.069 0a3.389 3.389 0 0 1 2.139-2.138zm11.205 26.084c.578-.192.578-1.009 0-1.202l-1.472-.491a3.809 3.809 0 0 1-2.404-2.404l-.491-1.472c-.193-.578-1.01-.578-1.203 0l-.49 1.472a3.812 3.812 0 0 1-2.405 2.404l-1.472.491c-.578.193-.578 1.01 0 1.202l1.472.491a3.812 3.812 0 0 1 2.405 2.405l.49 1.471c.193.578 1.01.578 1.203 0l.491-1.471a3.808 3.808 0 0 1 2.404-2.405l1.472-.491z" fill="#FFBE1A"/><path d="M189.162 182.853c0 6.447 5.838 11.674 5.838 11.674s5.837-5.227 5.837-11.674c0-6.448-5.837-11.674-5.837-11.674s-5.838 5.226-5.838 11.674z" fill="#fff"/><path d="M194.999 178.459c3.224 0 5.837 1.968 5.837 4.394 0-6.447-5.837-11.674-5.837-11.674s-5.837 5.227-5.837 11.674c0-2.426 2.613-4.394 5.837-4.394z" fill="#CCC"/><path d="M181.866 128.128c0 14.508 13.135 26.268 13.135 26.268s13.133-11.76 13.133-26.268c0-14.507-13.133-26.267-13.133-26.267s-13.135 11.76-13.135 26.267z" fill="#fff"/><path d="M194.998 118.243c7.254 0 13.134 4.426 13.134 9.885 0-14.507-13.134-26.268-13.134-26.268s-13.134 11.761-13.134 26.268c0-5.459 5.88-9.885 13.134-9.885z" fill="#CCC"/><path d="M180.766 161.929c3.308 9.088-2.239 19.45-2.239 19.45s-10.909-4.372-14.217-13.461c-3.308-9.088 2.239-19.45 2.239-19.45s10.909 4.372 14.217 13.461z" fill="#fff"/><path d="M172.538 158.53c3.595 0 6.71 1.409 8.251 3.468-.008-.023-.014-.047-.023-.069-3.307-9.089-14.217-13.461-14.217-13.461s-4.034 7.544-3.164 15.404c.728-3.031 4.548-5.342 9.153-5.342z" fill="#CCC"/><path d="M225.687 167.918c-3.308 9.089-14.217 13.461-14.217 13.461s-5.547-10.362-2.239-19.45c3.308-9.089 14.218-13.461 14.218-13.461s5.546 10.362 2.238 19.45z" fill="#fff"/><path d="M217.46 158.53c4.605 0 8.425 2.311 9.153 5.342.87-7.86-3.164-15.404-3.164-15.404s-10.91 4.372-14.217 13.461c-.009.022-.015.046-.023.069 1.541-2.059 4.656-3.468 8.251-3.468z" fill="#CCC"/></g><defs><linearGradient id="paint0_linear_383_515" x1="195" x2="195" y2="390" gradientUnits="userSpaceOnUse"><stop stop-color="#fff" stop-opacity=".13"/><stop offset="1" stop-color="#fff" stop-opacity="0"/></linearGradient><clipPath id="clip0_383_515"><path fill="#fff" d="M0 0H390V390H0z"/></clipPath></defs></svg>