<svg width="300" height="300" viewBox="0 0 300 300" fill="none" xmlns="http://www.w3.org/2000/svg">
<g clip-path="url(#clip0_263_2)">
<rect width="300" height="300" rx="150" fill="white"/>
<path d="M0 0H300V300H0V0Z" fill="#EEEEEE"/>
<path d="M100.836 163.358C118.11 162.918 133.15 148.482 133.172 129.176C133.193 110.708 118.982 96.8789 101.759 93.6334C83.6198 90.2139 67.5317 106.883 68.4106 129.176C69.1887 148.961 82.9582 163.813 100.836 163.358Z" fill="black"/>
<path d="M138.416 190.952H161.584C168.679 190.952 173.108 183.268 169.553 177.127L155.605 153.046C153.111 148.739 146.889 148.739 144.395 153.046L130.447 177.127C126.892 183.268 131.321 190.952 138.416 190.952Z" fill="black"/>
<path d="M244.796 165.374C242.356 165.681 240.138 166.884 237.934 167.974C232.786 170.521 227.376 172.478 221.871 174.099C219.06 174.925 216.224 175.665 213.38 176.369C210.741 177.024 208.303 177.111 206.474 179.358C201.755 185.154 202.643 192.494 203.023 199.436C203.302 204.51 203.961 209.978 201.359 214.343C199.573 217.337 197.621 218.054 194.243 218.406C190.006 218.848 188.601 218.014 187.561 213.64C186.99 211.235 186.902 208.683 185.85 206.444C185.389 205.462 184.717 204.538 183.769 204.012C182.158 203.119 180.043 203.588 178.617 204.753C177.191 205.921 176.344 207.651 175.758 209.399C175.104 211.356 174.724 213.407 174.632 215.467C174.545 217.431 174.683 219.539 173.632 221.198C172.08 223.643 168.729 224.023 165.836 224.148C164.211 224.219 162.543 224.283 161.004 223.762C157.253 222.484 157.466 219.365 157.597 216.041C157.736 212.489 156.816 208.486 154.387 205.735C152.962 204.121 147.075 204.08 145.612 205.735C143.184 208.486 142.264 212.489 142.403 216.041C142.534 219.365 142.747 222.484 138.998 223.762C137.457 224.283 135.789 224.219 134.164 224.148C131.27 224.023 127.919 223.643 126.368 221.198C125.317 219.539 125.454 217.431 125.368 215.467C125.276 213.407 124.896 211.356 124.242 209.399C123.656 207.651 122.809 205.921 121.383 204.753C119.957 203.588 117.842 203.119 116.231 204.012C115.283 204.538 114.61 205.462 114.15 206.444C113.098 208.683 113.01 211.235 112.438 213.64C111.399 218.014 109.994 218.848 105.757 218.406C102.379 218.054 100.427 217.337 98.6414 214.343C96.0386 209.978 96.6978 204.51 96.9773 199.436C97.357 192.494 98.2453 185.154 93.5255 179.358C91.6968 177.111 89.2593 177.024 86.6203 176.369C83.7755 175.665 80.9396 174.925 78.1289 174.099C72.624 172.478 67.2134 170.521 62.066 167.974C59.8617 166.884 57.6439 165.681 55.204 165.374C52.0201 164.974 49.3582 166.704 50.7867 170.064C51.6791 172.16 53.5376 173.664 55.3277 175.076C58.4085 177.507 61.5052 179.951 64.8972 181.938C67.8632 183.678 70.0517 185.534 71.6056 188.697C72.8624 191.256 73.8919 193.925 74.7732 196.637C76.0412 200.544 77.0666 204.453 78.3644 208.356C79.3875 211.434 80.9876 214.279 82.4408 217.181C85.4232 223.132 87.8056 229.383 89.5453 235.807C90.4265 239.072 91.2462 242.569 93.6562 244.942C96.0662 247.316 100.701 247.755 102.493 244.887C103.521 243.24 103.292 241.143 103.264 239.199C103.237 237.257 103.631 235.011 105.318 234.046C106.167 233.56 107.185 233.503 108.163 233.457C110.021 233.372 112.051 233.338 113.528 234.471C115.96 236.334 115.482 240.012 115.659 243.073C115.821 245.927 116.784 248.73 118.41 251.083C120.053 253.464 122.887 255.498 125.674 254.72C128.185 254.022 129.618 251.282 129.891 248.692C130.163 246.098 129.579 243.498 129.538 240.891C129.515 239.499 129.735 237.936 130.836 237.085C132.724 235.62 137.814 236.082 139.852 236.957C142.792 238.216 142.378 240.511 142.378 243.155C142.378 246.034 143.007 248.886 143.8 251.64C144.308 253.404 144.919 255.203 146.141 256.574C148.272 258.966 151.707 258.987 153.859 256.574C155.081 255.203 155.692 253.404 156.2 251.64C156.993 248.886 157.622 246.034 157.622 243.155C157.622 240.511 157.208 238.216 160.148 236.957C162.186 236.082 167.276 235.62 169.164 237.085C170.265 237.936 170.485 239.499 170.462 240.891C170.421 243.498 169.837 246.098 170.109 248.692C170.382 251.282 171.814 254.022 174.326 254.72C177.113 255.498 179.947 253.464 181.59 251.083C183.216 248.73 184.179 245.927 184.341 243.073C184.518 240.012 184.039 236.334 186.472 234.471C187.949 233.338 189.978 233.372 191.837 233.457C192.814 233.503 193.833 233.56 194.682 234.046C196.369 235.011 196.763 237.257 196.735 239.199C196.708 241.143 196.479 243.24 197.507 244.887C199.299 247.755 203.934 247.316 206.344 244.942C208.754 242.569 209.573 239.072 210.455 235.807C212.194 229.383 214.577 223.132 217.559 217.181C219.012 214.279 220.612 211.434 221.635 208.356C222.933 204.453 223.959 200.544 225.227 196.637C226.108 193.925 227.137 191.256 228.394 188.697C229.948 185.534 232.137 183.678 235.103 181.938C238.495 179.951 241.591 177.507 244.672 175.076C246.462 173.664 248.321 172.16 249.213 170.064C250.642 166.704 247.98 164.974 244.796 165.374Z" fill="black"/>
<path d="M199.164 163.358C217.042 163.813 230.811 148.961 231.589 129.176C232.468 106.883 216.38 90.2139 198.241 93.6334C181.018 96.8789 166.805 110.708 166.828 129.176C166.85 148.482 181.89 162.918 199.164 163.358Z" fill="black"/>
</g>
<rect x="4.5" y="4.5" width="291" height="291" rx="145.5" stroke="black" stroke-width="9"/>
<defs>
<clipPath id="clip0_263_2">
<rect width="300" height="300" rx="150" fill="white"/>
</clipPath>
</defs>
</svg>
